<svg xmlns="http://www.w3.org/2000/svg" width="353" height="158" fill="none"><path fill="currentColor" fill-rule="evenodd" d="M79.402 7.845c-.347-.214-.777-.32-1.288-.317a.053.053 0 0 1-.047-.027.056.056 0 0 1 0-.057c.469-.825.72-1.396.752-1.713.052-.522-.1-.901-.453-1.137-.193-.13-.546-.217-1.058-.26a109.72 109.72 0 0 0-1.88-.15.368.368 0 0 1-.316-.23.62.62 0 0 0-.412-.389 1.46 1.46 0 0 0-1.196.154 1.956 1.956 0 0 1-.81.274c-.025.003-.304.003-.838 0-1.828-.009-3.454-.139-4.876-.389-2.38-.419-4.328-.746-5.848-.982a32.092 32.092 0 0 0-3.863-.35A367.932 367.932 0 0 0 45.61 2.05c-9.536-.019-19.053-.002-28.552.048a.183.183 0 0 0-.106.034.19.19 0 0 0-.069.09 1903.274 1903.274 0 0 0-4.373 12.552c-.072.21-.16.352-.262.426a.645.645 0 0 1-.54.097.096.096 0 0 1-.075-.08.099.099 0 0 1 .001-.038l3.023-13.112a.139.139 0 0 0-.028-.118.132.132 0 0 0-.11-.047l-2.66.19a.205.205 0 0 0-.115.048.219.219 0 0 0-.069.108 9996.489 9996.489 0 0 0-6.23 22.6 2.81 2.81 0 0 0-.109.62c-.004.098-.034.125-.091.082-.035-.026-.053-.078-.055-.155-.052-1.673.046-3.178.292-4.515A722.413 722.413 0 0 1 9.06 2.706a.126.126 0 0 0-.027-.108.122.122 0 0 0-.101-.042l-2.149.142a.339.339 0 0 0-.216.098.354.354 0 0 0-.102.219 611.308 611.308 0 0 1-1.53 15.32 2.896 2.896 0 0 1-.79 1.711c-.234.248-.352.455-.352.62a7065.342 7065.342 0 0 0-.001 41.587c0 .25.057.548.169.894.212.656.248 1.352.106 2.088-.045.235-.02.462.074.683.122.284.242.586.362.908.11.298.169.614.176.947.03 1.522.026 3.042-.011 4.56a.257.257 0 0 1-.129.215 2.555 2.555 0 0 0-.72.584c-.148.176-.219.416-.212.721.071 3.258.134 6.515.188 9.77.007.399.045.806.115 1.222.067.403.13.807.19 1.211.083.554.116 1.166.098 1.836a48.916 48.916 0 0 0 .017 3.113l-.006.782c-.002.461.07.93.216 1.407.2.65.293 1.363.282 2.14a378.048 378.048 0 0 0-.041 3.394c0 .12.029.234.087.339.154.281.252.538.294.772.009.053.01.323.003.81-.019 1.389-.017 2.781.006 4.177.004.223.063.43.177.62.245.414.345.884.301 1.412a32.81 32.81 0 0 1-.204 1.847 4.118 4.118 0 0 0 .115 1.7.189.189 0 0 1-.032.165.184.184 0 0 1-.15.076H3.921a.128.128 0 0 0-.129.128v3.356a.76.76 0 0 0 .226.514l.77.799c.04.043.066.103.075.171l.17 1.388a.116.116 0 0 1-.018.078.137.137 0 0 1-.067.051l-1.027.367a.169.169 0 0 0-.074.053.158.158 0 0 0-.033.083l-.167 1.766a.285.285 0 0 1-.052.14.245.245 0 0 1-.111.089 9.978 9.978 0 0 0-2.235 1.215.107.107 0 0 0-.026.029.092.092 0 0 0-.01.072c.003.012.009.023.017.032l1.02 1.087c.023.024.05.044.079.058a.216.216 0 0 0 .088.021l.952.014a.24.24 0 0 1 .162.065c.043.04.067.094.067.151-.02 3.519-.007 7.057.041 10.613.005.338.076.662.212.972a945.194 945.194 0 0 0 3.621 8.165c.151.339.452.548.901.626a.214.214 0 0 1 .175.249c-.134.792-.033 1.449.303 1.973a.145.145 0 0 0 .064.055.167.167 0 0 0 .086.011c1.182-.175 2.3-.423 3.355-.744a.494.494 0 0 0 .334-.366c.7-3.238 1.45-6.403 2.25-9.495a15.265 15.265 0 0 1 2.764-5.639c.165-.211.253-.183.266.084.04.857-.06 1.666-.3 2.427l-.158.494a103.67 103.67 0 0 0-2.549 10.883c-.036.204-.147.438-.332.7a.09.09 0 0 0-.016.035.087.087 0 0 0 .041.095c.196.106.415.093.659-.041a16.457 16.457 0 0 1 2.329-1.038.297.297 0 0 1 .145-.015.296.296 0 0 1 .133.059 32.083 32.083 0 0 0 2.372 1.723c.638.42 1.423.556 2.354.407a.16.16 0 0 0 .083-.039.123.123 0 0 0 .04-.072l.213-1.389a.183.183 0 0 0-.01-.097.134.134 0 0 0-.058-.066l-.565-.311a.406.406 0 0 1-.114-.09.233.233 0 0 1-.053-.106l-.394-2.287a.223.223 0 0 1 .003-.093.24.24 0 0 1 .041-.086l1.883-2.427a.368.368 0 0 1 .144-.108.54.54 0 0 1 .2-.045l.678-.031a.12.12 0 0 0 .074-.032.145.145 0 0 0 .042-.077c.134-.676-.088-1.187-.666-1.534a.26.26 0 0 1-.069-.062.216.216 0 0 1-.038-.078 1.926 1.926 0 0 1-.048-.508l-.012-.327c-.01-.208.091-.308.305-.299a.142.142 0 0 0 .082-.019.118.118 0 0 0 .05-.059c.107-.288.006-.423-.303-.406a.114.114 0 0 1-.074-.023.088.088 0 0 1-.035-.063 2.202 2.202 0 0 1 .216-1.188.577.577 0 0 1 .427-.332.317.317 0 0 0 .165-.082c.507-.512.728-1.116.665-1.812a.34.34 0 0 1 .108-.282l2.176-2.02a.144.144 0 0 1 .109-.04c.02.001.04.006.057.014a.175.175 0 0 1 .048.035c.218.239.385.529.501.871a.42.42 0 0 0 .048.1.16.16 0 0 0 .057.054l.39.187c.04.019.076.038.103.056a.144.144 0 0 1 .05.043l.227.435a.255.255 0 0 0 .122.123c.396.145.622.485.676 1.019a.417.417 0 0 0 .239.338c.272.128.488.267.649.414.154.142.26.361.32.659.072.352.116.689.132 1.012.01.217.081.239.212.066.266-.352.472-.42.618-.206.072.105.238.266.495.484a.228.228 0 0 1 .08.161c.047.812.361 1.486.944 2.024a.248.248 0 0 0 .17.059c.213 0 .323.099.33.297.006.259.01.533.01.821a.154.154 0 0 1-.112.148.146.146 0 0 1-.066.005.684.684 0 0 0-.305.022.165.165 0 0 0-.113.132c-.03.194.09.301.364.319.522.034.759.33.711.89-.029.322-.043.687-.043 1.095a.22.22 0 0 1-.157.21c-.293.086-.423.169-.39.251.017.048.103.086.256.115.462.083.818.324 1.068.723a.293.293 0 0 1 .041.177 10.6 10.6 0 0 1-.153 1.126c-.113.595-.425 1.077-.937 1.446a.313.313 0 0 0-.132.271c.022.564-.25.867-.816.91a.626.626 0 0 0-.367.155c-.499.441-.802.91-.91 1.408a.531.531 0 0 0 .135.482c.273.287.44.304.5.053a.21.21 0 0 1 .202-.162h1.666a.16.16 0 0 1 .083.024.199.199 0 0 1 .067.066l.415.659c.018.027.03.057.035.086a.17.17 0 0 1-.005.083 4.547 4.547 0 0 0-.189 1.987.2.2 0 0 1-.052.17c-.28.291-.673.497-1.18.616a.176.176 0 0 0-.087.048.183.183 0 0 0-.049.088c-.05.209-.072.406-.064.591.005.11.032.198.08.263.097.129.213.103.348-.078a.568.568 0 0 1 .449-.228c.81-.007 1.633-.07 2.469-.188.186-.026.257-.126.211-.3a.138.138 0 0 1 .095-.167c1.167-.34 2.33-.48 3.488-.42a.258.258 0 0 0 .176-.052 1.12 1.12 0 0 0 .255-.28c.05-.082.1-.135.148-.158.142-.066.193.029.151.284a.195.195 0 0 0 .222.222c.325-.05.527.053.606.307.102.33.265.32.487-.031a.578.578 0 0 1 .52-.286h2.34c.014 0 .11-.009.29-.025.247-.024.374.085.38.326a.126.126 0 0 0 .029.077c.017.021.04.032.065.032l1.435.002c.028 0 .054-.01.076-.029a.145.145 0 0 0 .045-.076 2.466 2.466 0 0 0-.037-1.283c-.077-.256-.15-.254-.218.004-.076.286-.29.457-.643.511a.1.1 0 0 1-.07-.019.13.13 0 0 1-.044-.066l-.395-1.309a.18.18 0 0 1-.005-.087.144.144 0 0 1 .036-.071c.263-.272.39-.598.38-.98 0-.018.005-.129.017-.332.01-.183-.077-.279-.26-.288a.405.405 0 0 1-.105-.015.196.196 0 0 1-.07-.035c-.07-.064-.09-.138-.063-.222a.141.141 0 0 1 .045-.056.594.594 0 0 1 .093-.061l.243-.128a.133.133 0 0 0 .054-.062.257.257 0 0 0 .024-.099c.028-.748.381-1.176 1.059-1.282a.48.48 0 0 0 .373-.288c.128-.293.337-.409.627-.35a.18.18 0 0 0 .083-.002.183.183 0 0 0 .073-.041.182.182 0 0 0 .054-.155c-.034-.226.188-.288.666-.187a.335.335 0 0 1 .206.138c.516.75 1.035 1.396 1.558 1.939.123.127.2.293.22.471.052.517-.02.751-.214.702a.143.143 0 0 0-.164.075.144.144 0 0 0-.015.063v5.775c0 .042.018.083.05.113.03.03.073.047.117.048l.99.012c.01 0 .02-.003.029-.008a.055.055 0 0 0 .012-.008.065.065 0 0 0 .01-.013.057.057 0 0 0 .003-.057 2.01 2.01 0 0 1-.245-.768c-.022-.222.026-.403.144-.544.161-.192.37-.247.627-.164.464.152.565.428.305.829-.16.245-.31.496-.453.754a.107.107 0 0 0 .086.158 8.625 8.625 0 0 0 2.854-.302 24.207 24.207 0 0 0 2.265-.747.133.133 0 0 0 .085-.132l-.105-1.143a.11.11 0 0 1 .021-.073.103.103 0 0 1 .063-.04c.523-.102.594-.323.212-.661a.313.313 0 0 0-.175-.062c-.17-.014-.234-.145-.192-.391.098-.592.1-1.59.007-2.993a.455.455 0 0 0-.064-.221 1.014 1.014 0 0 0-.15-.185.22.22 0 0 1-.051-.077.176.176 0 0 1-.012-.084 5.343 5.343 0 0 1 .611-2.042.12.12 0 0 0 .012-.078.126.126 0 0 0-.039-.07 2.055 2.055 0 0 1-.402-.488c-.093-.159-.15-.387-.17-.682a7.232 7.232 0 0 0-.17-1.14.17.17 0 0 0-.04-.075.221.221 0 0 0-.074-.053c-.226-.097-.328-.271-.305-.521.014-.175.02-.268.02-.278v-2.339a.167.167 0 0 0-.021-.083.185.185 0 0 0-.062-.063c-.221-.14-.339-.286-.353-.438a5994.913 5994.913 0 0 0-2.458-24.784.22.22 0 0 0-.088-.155.256.256 0 0 0-.18-.049l-1.513.158a.113.113 0 0 1-.076-.021.15.15 0 0 1-.054-.069 1.532 1.532 0 0 0-.329-.513c-.14-.145-.345-.23-.612-.255a67.076 67.076 0 0 0-1.231-.099.46.46 0 0 0-.317.107l-1.03.83a.262.262 0 0 1-.174.055l-5.333-.199a.152.152 0 0 1-.134-.091 79.042 79.042 0 0 0-1.21-2.514 3.37 3.37 0 0 1-.366-1.227c-.642-7.358-1.3-14.715-1.972-22.072a626.526 626.526 0 0 0-2.867-25.563.154.154 0 0 0-.171-.133.154.154 0 0 0-.074.03c-.344.255-.735.3-1.171.134a.133.133 0 0 1-.08-.162.132.132 0 0 1 .033-.056 7.485 7.485 0 0 0 1.356-1.8c.223-.413.32-.853.294-1.323a39.56 39.56 0 0 0-.107-1.41c-.056-.594-.239-1.101-.548-1.52a.948.948 0 0 1-.193-.618l.26-6.325a.18.18 0 0 1 .026-.084.192.192 0 0 1 .062-.064c.669-.409 1.35-.73 2.042-.963.236-.08.479-.08.729-.002l8.398 2.635a.078.078 0 0 0 .085-.027.084.084 0 0 0 .018-.043c.128-1.11.212-2.225.252-3.343.033-.908.401-1.573 1.106-1.994.238-.143.489-.2.752-.172.285.03.54.116.767.259.593.37 1.09.88 1.492 1.532a.269.269 0 0 1 .039.18 2.163 2.163 0 0 1-.95 1.522c-.222.153-.203.267.054.344.206.06.406.164.599.31.165.128.294.302.384.524.188.455.307.931.358 1.43.052.502.099.975.142 1.419a.304.304 0 0 0 .196.256c2.644.979 5.166 1.969 7.565 2.97.746.31 1.225.86 1.44 1.646.113.418.206.98.277 1.684.673 6.658 1.155 11.633 1.445 14.926.66 7.49 1.38 14.975 2.163 22.454.044.43.199.8.466 1.107.28.324.45.547.513.668.256.504.41.933.464 1.29.044.294-.007.663-.153 1.108-.091.272-.14.415-.148.43-.08.131-.219.219-.42.266a.177.177 0 0 0-.133.136.218.218 0 0 0 .002.106c.01.035.027.068.052.095l.408.449c.016.018.03.043.038.074a.382.382 0 0 1 .014.105v2.325l.004.061.017.25c.028.361-.137.604-.495.731-.267.096-.27.19-.012.28.398.14.502.357.313.652-.013.019-.068.12-.165.301-.078.147-.207.205-.387.175a.139.139 0 0 0-.1.02.128.128 0 0 0-.055.081l-.59 3.106c-.019.09.008.105.079.042.45-.396.754-.861.913-1.394.055-.179.106-.304.154-.377a.69.69 0 0 1 .314-.278.424.424 0 0 0 .266-.426c-.047-.559.09-.989.412-1.291a.22.22 0 0 1 .079-.047c.03-.01.06-.013.09-.009.367.041.605.246.713.614.131.446.152.895.063 1.347a.23.23 0 0 1-.107.146c-.546.318-.882.698-1.009 1.142-.133.466-.156 1.208-.07 2.224.038.437-.068.788-.318 1.052-.16.169-.465.298-.913.387a12.89 12.89 0 0 0-1.024.249.753.753 0 0 0-.365.222c-.099.11-.189.228-.27.353a.194.194 0 0 1-.148.092 3.028 3.028 0 0 1-1.416-.218c-.068-.027-.202-.128-.402-.303a.482.482 0 0 0-.562-.072 19.32 19.32 0 0 1-1.233.536.285.285 0 0 1-.181-.001l-.99-.298a.071.071 0 0 0-.036-.001.094.094 0 0 0-.017.005l-.003.002-.005.003a.032.032 0 0 0-.008.005.089.089 0 0 0-.023.029.09.09 0 0 0-.008.037l-.035 2.734a.281.281 0 0 1-.064.169l-.258.344a.306.306 0 0 0-.055.179l-.008 2.462a.708.708 0 0 0 .148.435c.58.76.926 1.637 1.038 2.631.409 3.64.758 7.288 1.047 10.943a.287.287 0 0 0 .211.255c.33.089.678.143 1.048.161.231.013.581-.011 1.049-.072.437-.057.909-.099 1.414-.128a.513.513 0 0 1 .256.051 14.15 14.15 0 0 1 2.516 1.505c.42.317.725.674.917 1.069.202.415.39.921.565 1.519.353 1.2.653 2.463.902 3.787.01.057.04.107.083.144a.237.237 0 0 0 .154.057l2.003.008c.05 0 .1.014.144.041a.315.315 0 0 1 .11.112l.946 1.626a.178.178 0 0 0 .062.062.205.205 0 0 0 .088.029c.262.022.524.034.787.035.366.001.66.006.884.014 1.75.058 3.45-.214 5.1-.815a.28.28 0 0 1 .184-.006.9.9 0 0 1 .616.646c.032.115.07.203.112.262.245.349.362.298.352-.151a1.165 1.165 0 0 1 .03-.302c.23-.919.36-1.472.388-1.66.102-.7.182-2.366.24-4.996.055-2.463.107-4.925.158-7.387 0-.035.007-.068.02-.098a.186.186 0 0 1 .05-.071c.112-.096.24-.105.385-.029.058.03.117.05.176.06a.643.643 0 0 1 .307.133.19.19 0 0 1 .054.069.25.25 0 0 1 .024.092c.247 3.917.504 7.835.77 11.752l-.01.389c-.012.345.19.474.606.389.19-.039.471-.038.843.004.324.036.553.153.69.352.148.218.237.488.264.811.084 1.017-.303 1.631-1.16 1.841-.124.031-.323.04-.597.025-.573-.028-.718.16-.435.564.105.147.264.278.476.393.687.369 1.198.623 1.533.762.49.202 1.05.285 1.677.249a.162.162 0 0 0 .083-.029.131.131 0 0 0 .049-.068c.08-.259-.028-.549-.323-.869a.158.158 0 0 1-.042-.105l.01-.66a.248.248 0 0 1 .07-.171l1.746-1.769a.204.204 0 0 1 .074-.049.261.261 0 0 1 .093-.017h2.797a.166.166 0 0 0 .165-.165v-1.05a.22.22 0 0 1 .074-.164 1.659 1.659 0 0 1 1.38-.396c.344.05.479.237.404.561a.159.159 0 0 0 .028.131.149.149 0 0 0 .118.06c.21.005.41.005.598 0a1.51 1.51 0 0 0 .577-.13 197.62 197.62 0 0 0 6.111-2.773.31.31 0 0 0 .181-.268.47.47 0 0 1 .15-.335c.066-.059.17-.089.312-.089.332 0 .663-.002.995-.006.438-.005.858.143 1.261.445.1.074.139.049.118-.074-.114-.657.097-1.099.632-1.326a.202.202 0 0 1 .258.095 4.71 4.71 0 0 1 .511 2.021.167.167 0 0 0 .087.142 79.87 79.87 0 0 0 4.224 2.006c.96.422 1.963.649 3.011.683.435.014 1.451.01 3.048-.012.03 0 .06-.007.086-.021l.022-.014.007-.006.01-.009a.2.2 0 0 0 .027-.031l.303-.446a.203.203 0 0 1 .149-.089 81.832 81.832 0 0 1 1.97-.14c.013-.001.117-.02.311-.055.262-.046.352.12.27.5-.054.252.037.328.274.23.833-.348 1.59-.225 2.271.367a.457.457 0 0 1 .158.309c.138 1.701.264 3.273.378 4.715.09 1.131.109 2.262.059 3.394a.131.131 0 0 0 .083.132c.314.118.45-.005.408-.368-.158-1.397.333-2.47 1.473-3.22.494-.326.463-.597-.095-.811l-1.275-.49a.127.127 0 0 1-.042-.023.128.128 0 0 1-.028-.029.042.042 0 0 1-.009-.014l-.008-.015a.125.125 0 0 1-.01-.051l-.021-1.555a.171.171 0 0 1 .003-.04.147.147 0 0 1 .021-.053.104.104 0 0 1 .065-.049l.134-.029a.276.276 0 0 0 .085-.036.112.112 0 0 0 .045-.054c.191-.556.024-.879-.499-.97a.126.126 0 0 1-.075-.044.127.127 0 0 1-.03-.083v-7.937a.176.176 0 0 0-.074-.144l-3.526-2.549a.13.13 0 0 1-.049-.072.137.137 0 0 1 .008-.087c.333-.742.713-1.424 1.141-2.046.276-.403.538-.654.788-.754.27-.109.256-.245-.042-.407a.196.196 0 0 0-.243.045c-.238.287-.637.385-1.197.296a.146.146 0 0 1-.086-.05.134.134 0 0 1-.028-.094c.111-1.472.229-2.922.353-4.352a1.787 1.787 0 0 0-.08-.632 2.394 2.394 0 0 1-.091-.653 27.586 27.586 0 0 0-.004-.628c-.282-4.233-.615-7.499-.998-9.798-.046-.269-.263-.622-.653-1.06a.19.19 0 0 0-.07-.048.206.206 0 0 0-.089-.01c-.509.045-.841-.179-.995-.671a.245.245 0 0 1 .016-.183 6.929 6.929 0 0 0 .512-1.542c1.033-5.017 2.062-10.034 3.089-15.052a269.77 269.77 0 0 1 1.828-8.246c.265-1.106.557-1.922.877-2.448.586-.96 1.396-1.728 2.43-2.303a.184.184 0 0 0 .064-.06.175.175 0 0 0 .025-.084c.047-1.064.066-1.757.057-2.078a2.106 2.106 0 0 0-.199-.825c-.13-.283-.202-.527-.215-.73a48.247 48.247 0 0 1-.072-1.702c-.01-.436-.172-.926-.486-1.472a.204.204 0 0 1-.013-.173c.296-.735.831-1.406 1.604-2.012 1.662-1.306 2.694-2.085 3.097-2.338.466-.291.996-.339 1.589-.142.479.158 1.071.247 1.774.265.063.001.125.02.177.056a9.53 9.53 0 0 1 1.497 1.235 101.96 101.96 0 0 1 2.227 2.395c.186.207.343.401.47.584.192.275.321.489.388.641.287.655.152 1.201-.404 1.64a.111.111 0 0 0-.032.043.1.1 0 0 0-.009.054.117.117 0 0 0 .018.05l.005.007a.078.078 0 0 0 .01.012l.006.005.005.004a.058.058 0 0 0 .015.01c.558.296.943.72 1.156 1.271a.242.242 0 0 0 .116.132c.495.246 1.013.43 1.555.552.407.093.517.283.328.572l-.264.404a.195.195 0 0 0-.031.087.197.197 0 0 0 0 .049l.002.014.008.028a.203.203 0 0 0 .05.076c.023.02.05.036.079.044.217.06.349.198.397.41.087.39.234.739.441 1.044.131.191.311.286.542.286.454 0 .908.013 1.36.037.453.025.861-.135 1.224-.478.165-.157.369-.21.61-.158l2.492.535a.163.163 0 0 0 .085-.005.213.213 0 0 0 .08-.047l.888-.827a.255.255 0 0 1 .169-.068c1.041-.002 1.609.525 1.702 1.583a.378.378 0 0 0 .126.247c.723.639 1.207 1.326 1.451 2.061.249.75.659 1.393 1.23 1.93.205.195.418.5.641.915a66.838 66.838 0 0 1 2.436 4.978c.483 1.108.779 2.008.888 2.7.144.913.149 1.874.016 2.882-.132 1.005-.243 2.34-.333 4.006-.037.689-.12 1.449-.248 2.278a37.277 37.277 0 0 0-.284 2.281 5.19 5.19 0 0 0 .006 1.027c.036.341.074.682.113 1.023.042.37.022.744-.061 1.122a33.225 33.225 0 0 0-.415 2.306c-.06.408-.103 1.128-.129 2.158a15.182 15.182 0 0 1-.983 5.011.29.29 0 0 1-.116.146 5.662 5.662 0 0 1-1.77.748.495.495 0 0 0-.315.253l-1.053 2.007a.238.238 0 0 0-.017.177c.157.491.248.995.274 1.513.015.318.121.727.317 1.227.505 1.292.683 2.673.534 4.143a.197.197 0 0 1-.048.109.185.185 0 0 1-.1.062c-.374.096-.761.194-1.162.294a.94.94 0 0 1-.373.031c-.26-.043-.317-.185-.171-.426a.144.144 0 0 0 .023-.082.11.11 0 0 0-.028-.071 1.928 1.928 0 0 0-.651-.473.266.266 0 0 0-.183-.016c-.242.07-.28.205-.113.403.333.395.497.817.49 1.264-.01.823.163 1.605.519 2.345.257.539.386 1.169.386 1.89 0 .592.026 1.04.078 1.343.457 2.672.983 5.33 1.578 7.975a.073.073 0 0 0 .015.032l.008.009.005.004.001.002.014.008c.01.005.022.008.034.009a.076.076 0 0 0 .033-.008l1.601-.774c.325-.157.503-.059.532.294.028.324-.017.626-.134.906-.106.254-.3.471-.581.651a4.193 4.193 0 0 1-1.239.529c-.295.075-.345.229-.148.461.113.133.283.244.511.332.372.146.618.401.739.767a.094.094 0 0 1-.031.103.084.084 0 0 1-.034.017c-.36.099-.74.076-1.14-.068a.126.126 0 0 0-.064-.006.099.099 0 0 0-.037.011l-.006.003-.004.002-.006.004-.006.004a.129.129 0 0 0-.041.049.14.14 0 0 0-.013.063l.196 3.794c.012.215.105.258.278.128a4.16 4.16 0 0 1 1.568-.746c.32-.076.515.021.585.289a.118.118 0 0 0 .022.045.123.123 0 0 0 .04.031.113.113 0 0 0 .097 0c.67-.307 1.21-.203 1.622.313a.387.387 0 0 0 .319.146l4.161-.2a.101.101 0 0 0 .067-.03.101.101 0 0 0 .03-.067c.126-2.237.247-4.473.364-6.711a.695.695 0 0 1 .338-.575.275.275 0 0 0 .076-.076.237.237 0 0 0 .031-.196.184.184 0 0 0-.051-.082l-.435-.42a.186.186 0 0 1-.048-.072.147.147 0 0 1-.007-.08l.704-3.36c.041-.198.11-.21.208-.037.235.427.582.656 1.039.689.491.036.757.061.798.075.473.178.549.537.228 1.078a.168.168 0 0 1-.056.052.393.393 0 0 1-.092.043l-.291.097a.169.169 0 0 0-.072.049l-.015.02a.1.1 0 0 0-.011.017l-.008.014a.275.275 0 0 0-.015.036c-.105.32.035.45.42.389a.088.088 0 0 1 .036.002.147.147 0 0 1 .022.01.04.04 0 0 1 .01.008c.01.008.017.018.023.029a.095.095 0 0 1 .008.037c.002.24-.036.433-.117.579-.045.079-.195.178-.449.296a1.105 1.105 0 0 0-.448.369c-.092.128-.141.305-.146.531a37.719 37.719 0 0 0 .042 3.034l.002.009.002.007.004.012.001.002c.005.011.01.021.016.03a.127.127 0 0 0 .065.05l.437.146.012.005.004.002a.08.08 0 0 1 .03.037c.004.01.005.021.003.031a.058.058 0 0 1-.012.028l-1.129 1.437a.294.294 0 0 0-.071.171l-.012 2.347c0 .026.011.05.03.069a.112.112 0 0 0 .073.03c.939.035 1.878.048 2.817.039.421-.005.654-.016.699-.033.191-.073.38-.24.567-.504.126-.176.309-.269.55-.28l.977-.044a.119.119 0 0 0 .074-.032.122.122 0 0 0 .039-.073c.034-.213.055-.427.064-.642.029-.655-.171-.821-.598-.5a.073.073 0 0 1-.031.014.074.074 0 0 1-.033-.002.12.12 0 0 1-.016-.008l-.01-.009a.056.056 0 0 1-.013-.028l-.105-.673a.12.12 0 0 1 .018-.079.17.17 0 0 1 .069-.061l2.009-.937a.158.158 0 0 0 .067-.056.163.163 0 0 0 .032-.082c.115-.995.108-1.761-.023-2.296-.14-.569-.073-1.09.2-1.564a.252.252 0 0 0 .028-.186.255.255 0 0 0-.106-.156c-.409-.281-.499-.624-.27-1.028.248-.437.509-.862.785-1.274.118-.176.294-.266.529-.27l2.513-.047a.188.188 0 0 0 .084-.024.252.252 0 0 0 .072-.063l.33-.417a.106.106 0 0 1 .14-.023c.456.298.885.467 1.288.508a.424.424 0 0 0 .247-.052.422.422 0 0 0 .171-.186c.133-.289.288-.468.466-.538.145-.057.334 0 .567.171a25.68 25.68 0 0 1 2.114 1.744c.159.147.249.112.27-.103.26-2.786.517-5.635.771-8.548.009-.11.07-.37.183-.781.089-.324.127-.587.112-.788a2.15 2.15 0 0 0-.613-1.375.13.13 0 0 0-.073-.036.134.134 0 0 0-.081.017c-.795.459-1.295.246-1.5-.638-.003-.012-.006-.024-.011-.035a.186.186 0 0 0-.027-.045l-.015-.018-.006-.006a.198.198 0 0 0-.048-.034c-.38-.198-.659-.426-.835-.684-.374-.549-.319-.831.167-.846a.907.907 0 0 1 .595.183c.321.239.45.57.386.991a.113.113 0 0 0 .064.12l.012.005a.826.826 0 0 1 .503.464.213.213 0 0 0 .058.081.108.108 0 0 0 .072.028c.053-.002.082-.037.086-.103.068-1.221.149-2.174.241-2.858a.142.142 0 0 1 .012-.04.129.129 0 0 1 .022-.035.166.166 0 0 1 .071-.048c.336-.11.611-.289.823-.538.179-.209.282-.523.309-.941.106-1.609.164-2.585.173-2.929.052-1.956.323-3.88.812-5.773a.298.298 0 0 1 .044-.092.136.136 0 0 1 .067-.048c.149-.042.326.08.532.368a.72.72 0 0 1 .134.465 101.94 101.94 0 0 0-.173 8.516c.002.056.023.11.061.151.039.04.09.065.145.069l3.2.187a.136.136 0 0 0 .091-.029.143.143 0 0 0 .051-.082c.247-1.189.289-2.321.126-3.397a94.31 94.31 0 0 0-1.597-8.124c-.1-.41-.21-.786-.332-1.128a11.621 11.621 0 0 0-.441-1.097c-.929-1.902-1.508-3.138-1.737-3.706a9.287 9.287 0 0 1-.55-1.981 308.512 308.512 0 0 1-2.133-15.799c-.532-4.894-1.419-10.452-2.659-16.673a293.806 293.806 0 0 1-.744-3.82 3101.678 3101.678 0 0 0-4.795-25.106 5332.33 5332.33 0 0 1-4.396-22.775 1.949 1.949 0 0 1-.043-.338c-.003-.335.114-.407.35-.218.125.1.274.312.446.638.101.19.202.428.301.713 3.911 11.201 7.823 22.402 11.736 33.602.429 1.224.867 2.442 1.314 3.656l5.126 13.897c.188.51.502 1.286.941 2.327.186.442.417.795.691 1.058.114.109.516.39 1.207.846a.183.183 0 0 1 .06.064.18.18 0 0 1 .021.086c.008.92.017 1.84.028 2.759.009.797.111 1.576.307 2.337.068.267.315 1.007.74 2.22.914 2.611 1.9 5.195 2.956 7.753.236.57.757 1.903 1.564 3.998.131.34.198.693.2 1.055.05 9.011.065 18.121.045 27.33a.166.166 0 0 0 .159.167l4.309.198a.302.302 0 0 1 .175.064l.878.693a.246.246 0 0 0 .082.042c.03.008.06.011.089.006a21.634 21.634 0 0 1 2.93-.227c.825-.008 1.409.079 1.752.26.674.355.863 1.033.569 2.034a.264.264 0 0 1-.256.195l-8.016-.002c-.136 0-.169.058-.101.175l8.929 15.299c.158.271.244.249.258-.065.012-.251.055-.511.131-.779.051-.19.149-.432.291-.728 3.045-6.345 5.052-10.594 6.022-12.745.083-.184.131-.501.144-.949a.16.16 0 0 0-.022-.086.137.137 0 0 0-.063-.056c-.305-.136-.564-.003-.777.4a.324.324 0 0 1-.115.123.322.322 0 0 1-.163.045h-.979a.15.15 0 0 1-.15-.15v-1.521c0-.034.014-.066.038-.09a.123.123 0 0 1 .09-.038h1.222a.168.168 0 0 0 .071-.015l.017-.008a.19.19 0 0 0 .064-.065l.468-.801a.307.307 0 0 1 .133-.122.297.297 0 0 1 .176-.025l3.503.581a.325.325 0 0 0 .014.003.138.138 0 0 1 .057.036.125.125 0 0 1 .033.076c.104 1.146-.267 2.093-1.113 2.841a.22.22 0 0 1-.083.044.14.14 0 0 1-.084-.004l-.734-.272a.276.276 0 0 0-.175-.006.244.244 0 0 0-.134.103c-.053.087.196.276.748.566a.368.368 0 0 1 .196.317c.005.303-.032.62-.111.949a4.963 4.963 0 0 1-.332.887 1529.302 1529.302 0 0 1-7.06 15.077c-.112.237-.158.458-.136.663.024.233.08.461.169.682a.162.162 0 0 0 .133.102c.698.083 1.155-.218 1.373-.903a.437.437 0 0 1 .346-.299c.385-.061.896-.04 1.535.062.103.017.198.05.273.096a.358.358 0 0 1 .152.167l.324.803a.282.282 0 0 0 .021.038l.006.008.009.011.016.013a.109.109 0 0 0 .071.027h1.643c.157 0 .182-.056.076-.169l-.653-.696a.27.27 0 0 1-.073-.168 14.587 14.587 0 0 0-.053-.517c-.058-.468.077-.839.406-1.112a.08.08 0 0 0 .013-.013l.01-.015a.108.108 0 0 0 .01-.035c0-.01 0-.019-.003-.029l-.002-.006a.083.083 0 0 0-.018-.03c-.443-.454-.433-.897.031-1.33a65.422 65.422 0 0 1 1.943-1.743.324.324 0 0 1 .378-.031c.363.223.523.227.48.01a.775.775 0 0 0-.14-.262.732.732 0 0 1-.147-.417v-1.567a.472.472 0 0 0-.292-.437c-.238-.099-.346-.244-.324-.436.019-.177.028-.269.027-.276a3.578 3.578 0 0 1 .538-1.968.339.339 0 0 0 .051-.179 26.503 26.503 0 0 0-.029-1.162 3.375 3.375 0 0 1 .379-1.747c.424-.819.876-1.622 1.354-2.411a.14.14 0 0 1 .06-.056.081.081 0 0 1 .068-.002c.035.018.052.049.05.093a3.471 3.471 0 0 0 .266 1.533c.116.273.173.265.171-.026-.009-1.072.22-2.036.686-2.891.117-.215.295-.296.534-.243.313.067.563.012.75-.167.296-.282.492-.607.591-.976.083-.309.069-.671-.041-1.087a5.281 5.281 0 0 0-.688-1.564c-.058-.088-.034-.132.072-.132h1.141a.614.614 0 0 0 .47-.218c.324-.386.728-.557 1.212-.511a3.902 3.902 0 0 1 1.597.505c.012.007.09.042.235.105.22.098.3.308.239.63a.566.566 0 0 0 .163.512c.255.244.315.535.181.873l-.13.328a6.043 6.043 0 0 0-.212 1.227.452.452 0 0 0 .233.43l2.932 1.635a.174.174 0 0 1 .085.179c-.132.76-.019 1.399.34 1.918.136.195.352.337.647.423l.523.155.27.081a.231.231 0 0 1 .085.045c.024.02.043.045.054.071.068.155.053.3-.044.436a.246.246 0 0 1-.158.091l-1.021.164a.264.264 0 0 0-.164.081l-.48.591a.247.247 0 0 0-.054.147.278.278 0 0 0 .043.157c.144.224.346.373.606.447a.53.53 0 0 1 .352.329c.29.812.432 1.628.427 2.448a.501.501 0 0 0 .025.177c.062.178.134.19.214.035a.49.49 0 0 0 .045-.179c.088-1.163.176-2.325.266-3.487.023-.303.114-.538.274-.704.167-.176.378-.338.633-.486a.281.281 0 0 0 .105-.106.284.284 0 0 0 .039-.145v-7.63c0-.377.005-.588.015-.633.05-.208.178-.39.385-.547.255-.192.52-.481.795-.869a.257.257 0 0 0 .048-.175c-.066-.758-.435-1.307-1.107-1.647a.169.169 0 0 1-.065-.059.147.147 0 0 1-.021-.081l.198-4.297a.316.316 0 0 0-.009-.1.124.124 0 0 0-.037-.062c-.04-.032-.081-.007-.123.074a303.406 303.406 0 0 1-2.032 3.926c-.076.145-.156.24-.239.284a.423.423 0 0 1-.408-.008.185.185 0 0 1-.097-.121l-.006-.021c-.069-.382-.055-.675.043-.879a47.081 47.081 0 0 0 2.38-5.889 7.393 7.393 0 0 0 .35-1.797c.199-2.769.272-5.542.219-8.318-.05-2.621-.066-5.242-.046-7.864l-.01-.217c-.012-.254.052-.562.192-.924.99-2.57 2.002-5.182 3.037-7.834a.438.438 0 0 1 .375-.28 2.36 2.36 0 0 0 1.222-.48.265.265 0 0 0 .101-.154c.196-.815-.011-1.602-.622-2.359a.372.372 0 0 1-.06-.366l1.523-4.116a.176.176 0 0 1 .052-.074.141.141 0 0 1 .078-.032l.8-.059a.081.081 0 0 0 .034-.01.078.078 0 0 0 .027-.021.067.067 0 0 0 .013-.03c.001-.01 0-.02-.004-.03a.669.669 0 0 0-.26-.323c-.348-.235-.512-.528-.49-.879.006-.09.091-.382.257-.875 1.575-4.704 2.578-7.67 3.011-8.9a.645.645 0 0 1 .286-.326c.124-.077.197-.146.219-.208.049-.133-.011-.243-.182-.33a.365.365 0 0 1-.187-.41l.771-2.994a.269.269 0 0 1 .105-.151l.977-.67a.497.497 0 0 0 .197-.256l.994-3.088a.187.187 0 0 0-.081-.216c-.214-.128-.29-.299-.228-.513a16.8 16.8 0 0 1 1.084-2.742.3.3 0 0 1 .309-.16c.27.04.43-.04.482-.244l.032-.13a.256.256 0 0 1 15.839-44.228.134.134 0 0 1 .05-.041c.025-.012.051-.016.075-.012.023.003.043.02.058.048a.217.217 0 0 1 .024.102l.208 17.01a.188.188 0 0 0 .182.186c2.548.072 5.125.074 7.732.008 3.736-.097 7.472-.165 11.21-.202l.058-.005.157-.013c.166-.011.235.04.206.154a.192.192 0 0 1-.042.085.195.195 0 0 1-.078.053l-.493.185a.146.146 0 0 0-.051.03c-.012.011-.019.023-.017.034.001.026.026.04.075.04 8.224.115 16.449.202 24.673.261a.29.29 0 0 1 .101.017c.03.011.055.028.072.047l.456.535a.15.15 0 0 1 .032.077c.004.03 0 .064-.011.096a22.919 22.919 0 0 1-.845 2.145 7730.997 7730.997 0 0 1-14.078 31.704 197.833 197.833 0 0 1-1.625 3.535 10909.2 10909.2 0 0 0-4.409 9.355 6.597 6.597 0 0 0-.585 2.04c-.038.305-.149.722-.332 1.248a67.458 67.458 0 0 1-1.325 3.508c-.307.739-.664 1.368-1.071 1.888-.45.575-.948 1.11-1.492 1.604a45.82 45.82 0 0 0-1.696 1.627.503.503 0 0 0-.144.32l-.192 3.013a.288.288 0 0 1-.072.17 2.371 2.371 0 0 0-.577 1.52c-.01.34-.084.668-.221.982a882.71 882.71 0 0 1-6.232 13.833c-.818 1.77-1.62 3.548-2.407 5.333-.402.908-.472 1.875-.21 2.903a397.268 397.268 0 0 0 4.635 16.769c.029.096.209.571.54 1.425.171.443.31.936.416 1.48a.197.197 0 0 0 .188.158c1.231.015 2.396.038 3.497.068 1.219.031 2.43-.047 3.633-.234a.179.179 0 0 1 .086.009c.027.01.051.027.069.05.227.276.456.549.688.818.249.287.439.602.569.945 1.03 2.69 2.048 5.385 3.054 8.085.144.384.2.673.167.868-.059.348-.293.584-.701.707a3.017 3.017 0 0 1-.962.113.109.109 0 0 0-.036.006.091.091 0 0 0-.051.051.081.081 0 0 0-.006.031v.005l.165 1.861a.108.108 0 0 0 .037.071c.01.009.021.015.033.02a.09.09 0 0 0 .043.008h5.026a.1.1 0 0 0 .071-.029.107.107 0 0 0 .032-.072l.233-4.715a.11.11 0 0 1 .002-.018l.007-.022a.108.108 0 0 1 .024-.032.092.092 0 0 1 .033-.019.078.078 0 0 1 .037-.002l.767.146a.16.16 0 0 1 .101.066.225.225 0 0 1 .041.126c.004 1.005.105 1.965.303 2.882.091.416.252.753.484 1.011.263.29.567.529.913.717.293.16.666.24 1.119.24.559.001 1.119-.003 1.678-.012a.47.47 0 0 0 .286-.086.518.518 0 0 0 .179-.26c.028-.092.015-.234-.039-.424-.244-.836.014-1.326.773-1.47.382-.073.686.049.911.365a11.07 11.07 0 0 1 1.043 1.793l.017.043.048.119c.112.293.334.401.664.324a.438.438 0 0 1 .484.224c.14.272.345.411.616.418.182.004.306.001.373-.01.15-.022.249-.12.299-.295a.184.184 0 0 1 .065-.099l.004-.003.004-.004.008-.005.018-.01.028-.011a.151.151 0 0 1 .048-.008l4.153-.203a.075.075 0 0 0 .063-.036.083.083 0 0 0 .013-.034.073.073 0 0 0-.004-.036c-.087-.261-.062-.454.076-.578a.783.783 0 0 0 .076-.081.204.204 0 0 0 .038-.067.782.782 0 0 0 .014-.311.103.103 0 0 1 .002-.039.106.106 0 0 1 .085-.074 2.443 2.443 0 0 1 1.242.148l.007.003.007.002a.155.155 0 0 0 .036.008.254.254 0 0 0 .039 0 .162.162 0 0 0 .078-.032l1.758-1.459a.36.36 0 0 0 .126-.245l.226-2.057a.132.132 0 0 1 .043-.085.123.123 0 0 1 .087-.033h1.107c.041 0 .083.01.12.031a.286.286 0 0 1 .096.087l.67.97c.02.03.035.06.043.091.008.03.009.059.004.084l-.105.488a.28.28 0 0 0 .015.181c.35.664.92 1.06 1.712 1.188a.201.201 0 0 0 .097-.008.21.21 0 0 0 .081-.054l.015-.02.007-.009.003-.006.005-.009.005-.01a.223.223 0 0 0 .018-.082.205.205 0 0 0-.006-.049l-.449-1.857a.582.582 0 0 1 0-.269.548.548 0 0 1 .123-.238l4.934-5.584a.451.451 0 0 0 .115-.296v-1.981c0-.186-.08-.232-.239-.138a.809.809 0 0 1-.595.091.382.382 0 0 1-.279-.196.333.333 0 0 1 .039-.393.227.227 0 0 1 .161-.086l.755-.058a.128.128 0 0 0 .074-.029.1.1 0 0 0 .035-.064 9.001 9.001 0 0 0-.52-4.372c-.221-.578-.094-1.044.38-1.398.241-.18.447-.083.616.292a.565.565 0 0 0 .519.356c1.699.088 3.514.043 5.445-.134a.091.091 0 0 1 .086.039c.01.014.016.03.018.046a.115.115 0 0 1-.008.049 2.375 2.375 0 0 1-.282.494c-.074.096-.222.205-.445.326a3.41 3.41 0 0 0-.975.798.119.119 0 0 0-.006.153c.11.142.245.253.406.335.148.075.358-.022.631-.292a203.71 203.71 0 0 0 8.041-8.4.64.64 0 0 1 .665-.206 8.742 8.742 0 0 1 1.777.649l7.433 3.601a.143.143 0 0 0 .133-.005.14.14 0 0 0 .069-.113c.04-.883.091-1.689.153-2.417.039-.456.283-.714.731-.774a125.3 125.3 0 0 1 2.898-.354.181.181 0 0 0 .162-.181v-3.297a.145.145 0 0 0-.047-.104.158.158 0 0 0-.051-.028c-.019-.005-.038-.007-.058-.005-.72.086-1.346.03-1.878-.167a.215.215 0 0 0-.09-.014.2.2 0 0 0-.087.022c-.516.253-1.122.38-1.818.381a.149.149 0 0 1-.1-.038.166.166 0 0 1-.052-.096l-.165-.982a.231.231 0 0 0-.065-.123.242.242 0 0 0-.127-.062l-1.343-.206a.152.152 0 0 0-.12.033.194.194 0 0 0-.07.117l-.251 1.231a.105.105 0 0 1-.044.064.149.149 0 0 1-.084.025c-11.693.013-23.384-.039-35.076-.157-.43-.004-.722-.138-.878-.401a.261.261 0 0 1-.027-.181c.114-.588.225-1.023.334-1.303a149.513 149.513 0 0 1 2.716-6.533.123.123 0 0 1 .051-.053l.01-.005.005-.003.005-.002.019-.007.027-.007.021-.003.429-.04a.138.138 0 0 0 .075-.036.244.244 0 0 0 .059-.083l12.634-27.979a.109.109 0 0 0 .008-.064.126.126 0 0 0-.03-.062l-1.072-1.27a.106.106 0 0 1-.02-.037.098.098 0 0 1 .007-.08l.004-.007.004-.004a.084.084 0 0 1 .019-.018l1.243-.886a.116.116 0 0 1 .077-.02.138.138 0 0 1 .078.033c.227.196.494.282.801.257a.17.17 0 0 0 .136-.1 2806.656 2806.656 0 0 1 22.619-50.032.318.318 0 0 1 .241-.182c.076-.012.137.054.182.198.138.437.245.452.323.047a.357.357 0 0 1 .085-.168c.183-.205.358-.485.527-.84a507.923 507.923 0 0 0 5.562-12.13.256.256 0 0 0-.086-.313 23.995 23.995 0 0 1-1.923-1.526 3.957 3.957 0 0 1-.845-1.007c-.259-.447-.437-.855-.534-1.223-.332-1.255-.491-2.697-.478-4.326a126.7 126.7 0 0 1 .138-5.007c.029-.642.158-1.15.384-1.523a.204.204 0 0 1 .065-.067.161.161 0 0 1 .083-.026l1.368-.031c.127-.003.154-.054.081-.154a11.213 11.213 0 0 0-1.894-1.989.227.227 0 0 1-.078-.16l-.233-4.713a.108.108 0 0 0-.105-.105l-2.646-.027a.176.176 0 0 0-.176.165l-.204 2.865a.15.15 0 0 1-.017.054.136.136 0 0 1-.088.068.135.135 0 0 1-.057 0 1.354 1.354 0 0 1-.614-.3c-.143-.12-.237-.311-.281-.573a18.991 18.991 0 0 0-.468-2.018.488.488 0 0 0-.265-.307 5.818 5.818 0 0 0-.773-.292 3.83 3.83 0 0 0-.808-.132 202.17 202.17 0 0 1-6.617-.58.158.158 0 0 0-.087.015.15.15 0 0 0-.064.059 1.9 1.9 0 0 0-.251.824.157.157 0 0 1-.159.148l-39.703.012a.15.15 0 0 0-.08.024.17.17 0 0 0-.058.063c-.14.265-.373.361-.7.29-.246-.053-.266 0-.06.158a.871.871 0 0 1 .359.768.206.206 0 0 1-.023.086.252.252 0 0 1-.06.073c-.587.485-1.011.448-1.273-.11a.756.756 0 0 1-.029-.598c.07-.195.174-.38.313-.554.113-.141.079-.212-.101-.212l-19.291.035a.096.096 0 0 0-.038.008.084.084 0 0 0-.031.022.085.085 0 0 0-.022.07l.083.596a.19.19 0 0 1-.009.09.15.15 0 0 1-.047.068 1.724 1.724 0 0 1-1.448.358.286.286 0 0 1-.157-.092 1.184 1.184 0 0 0-.841-.383l-.402-.017c-1.418-.158-2.484-.2-3.198-.123-1.114.12-2.308.185-3.584.197a1.123 1.123 0 0 1-.573-.146 3.533 3.533 0 0 0-1.327-.42 58.061 58.061 0 0 0-5.735-.362 598.725 598.725 0 0 0-18.31.023c-2.072.035-4.203.061-6.392.078a.235.235 0 0 0-.144.05.234.234 0 0 0-.085.127c-3.065 11.47-6.123 22.914-9.171 34.333a54.307 54.307 0 0 1-.933 3.117.338.338 0 0 0-.008.187c.139.56.16 1.112.064 1.657-.06.34-.255.789-.584 1.349-.328.555-.547 1-.657 1.336-.668 2.034-1.705 5.54-3.11 10.517a.987.987 0 0 1-.241.444c-.295.286-.496.204-.602-.245l-.068-.284c-1.58-5.652-3.15-11.307-4.709-16.964a1106.57 1106.57 0 0 0-6.942-24.109c-.145-.485-.329-.866-.551-1.145a7.75 7.75 0 0 0-.896-.93c-.495-.44-.855-1.02-1.08-1.738-.191-.603-.286-.905-.286-.908a4.878 4.878 0 0 0-.967-1.485 2.245 2.245 0 0 1-.47-.737 48.382 48.382 0 0 1-1.506-4.414.22.22 0 0 0-.212-.16h-13c-2.869 0-5.443.114-7.723.34-.506.051-1.983.069-4.431.053-.118-.001-.396-.043-.833-.124a5.344 5.344 0 0 0-.855-.074c-7.204-.131-14.408-.26-21.613-.39-.514-.008-.802-.219-.864-.631a.246.246 0 0 1 .044-.177 1.654 1.654 0 0 1 1.217-.69.317.317 0 0 0 .095-.025.115.115 0 0 0 .054-.045c.026-.046-.004-.083-.089-.113a.422.422 0 0 0-.14-.02c-2.86.003-5.717.067-8.573.193-2.78.123-5.123.322-7.031.597-3.451.499-5.738.803-6.86.912-2.292.223-4.316.32-6.071.291a647.378 647.378 0 0 0-8.244-.083.112.112 0 0 0-.113.095 60.837 60.837 0 0 0-.53 3.877c-.37 3.688-.904 7.237-1.603 10.646-.434 2.114-1.422 6.02-2.963 11.716-1.632 6.031-2.921 11.752-3.868 17.161a.386.386 0 0 0-.004.106.163.163 0 0 0 .028.077l.47.626a.677.677 0 0 1 .06.095.163.163 0 0 1 .023.066l.012 1.47c0 .026-.01.052-.029.074a.168.168 0 0 1-.076.049l-1.222.38a.164.164 0 0 0-.073.047.194.194 0 0 0-.04.08 1763.52 1763.52 0 0 1-4.738 22.412.448.448 0 0 1-.103.216c-.157.171-.252.127-.285-.132a73.355 73.355 0 0 0-.241-1.702.22.22 0 0 0-.1-.146c-.868-.548-.929-1.19-.18-1.925a.238.238 0 0 0 .072-.165c.084-6.075.148-12.151.192-18.227.029-3.958.036-7.02.021-9.186-.009-1.494-.087-2.787-.235-3.879a38.815 38.815 0 0 0-1.622-7.027.106.106 0 0 0-.071-.067.1.1 0 0 0-.094.022 9.724 9.724 0 0 0-2.49 3.46.282.282 0 0 1-.119.14.57.57 0 0 1-.484.036.129.129 0 0 1-.065-.052.146.146 0 0 1-.022-.084l.212-5.516a.18.18 0 0 0-.019-.086.194.194 0 0 0-.057-.07 1.541 1.541 0 0 1-.589-.976c-.056-.304.094-.446.449-.426.32.02.468-.106.445-.377a9.667 9.667 0 0 1-.02-.243v-2.565a.802.802 0 0 0-.124-.43c-2.844-4.478-6.37-8.244-10.58-11.299-1.617-1.173-2.845-2.018-3.683-2.537Zm185.874-3.24c-.401.25-.629.263-.682.041-.045-.193.01-.318.165-.377.133-.05.306-.004.521.14a.12.12 0 0 1 .039.043.122.122 0 0 1 .013.056.121.121 0 0 1-.056.098ZM148.659 7.605a2.775 2.775 0 0 1-.829-.959.157.157 0 0 1-.017-.087.131.131 0 0 1 .034-.076.43.43 0 0 1 .488-.128 1.9 1.9 0 0 1 .408.214c.285.186.403.469.355.847-.04.31-.186.373-.439.189Zm84.224 1.421c.129-.333.252-.575.37-.727.528-.686 1.184-.922 1.968-.71.277.076.472.186.586.333.16.207.167.465.022.772-.155.33-.387.629-.698.898a.2.2 0 0 1-.157.048.201.201 0 0 1-.138-.083c-.11-.158-.203-.22-.278-.185-.016.007-.031.027-.041.056a.335.335 0 0 0-.015.106.244.244 0 0 1-.078.19c-.039.038-.097.057-.175.059a2.656 2.656 0 0 1-1.16-.25c-.229-.103-.297-.272-.206-.507Zm37.916 3.918a4.663 4.663 0 0 1-.083-2.33.207.207 0 0 1 .225-.162c.464.049.802.253 1.016.612.305.51.453 1.051.445 1.626-.005.374-.11.665-.315.87-.26.263-.551.272-.874.028-.19-.144-.328-.358-.414-.644Zm-188.821.312c-.697-.102-1.039-.504-1.026-1.206a.192.192 0 0 1 .082-.157.635.635 0 0 1 .668-.072l.315.14c.145.054.282.123.412.206a.153.153 0 0 1 .07.152 1.76 1.76 0 0 1-.364.872.169.169 0 0 1-.157.065Zm149.534 3.832c-.312-.127-.456-.404-.431-.832a.354.354 0 0 1 .161-.278 3.83 3.83 0 0 1 1.356-.543.185.185 0 0 1 .09.005.17.17 0 0 1 .075.046c.207.221.269.462.185.721a1.38 1.38 0 0 1-.655.795c-.275.159-.535.187-.781.086ZM78.139 25.693c-.237-.306-.145-.445.276-.418a.164.164 0 0 1 .117.062.158.158 0 0 1 .03.129c-.082.407-.224.482-.423.227ZM338.938 36.9l-.682-.047a.109.109 0 0 1-.059-.022.12.12 0 0 1-.04-.051.153.153 0 0 1-.009-.068.152.152 0 0 1 .024-.065c.271-.41.562-.416.875-.02.155.198.119.288-.109.273Zm-230.87 5.691c-.015.428-.241.55-.678.366a.1.1 0 0 1-.044-.036.116.116 0 0 1-.02-.055.142.142 0 0 1 .045-.114l.346-.318c.246-.228.363-.176.351.157Zm221.288.737c.118.466.048.902-.209 1.309a1.35 1.35 0 0 1-.696.538.09.09 0 0 1-.118-.062 5.465 5.465 0 0 1-.146-.931c-.022-.337.063-.587.256-.749.213-.176.477-.247.793-.212a.139.139 0 0 1 .12.107ZM35.024 57.072c-.007.868-.352 1.165-1.033.891-.19-.076-.277-.215-.258-.414a.15.15 0 0 1 .03-.077.204.204 0 0 1 .073-.057c.21-.105.327-.254.35-.447.04-.353.19-.492.45-.419.261.077.391.251.388.523Zm288.116 5.756.499.17a.305.305 0 0 1 .123.08.483.483 0 0 1 .091.143c.358.854.104 1.357-.764 1.509a.121.121 0 0 1-.08-.014.126.126 0 0 1-.04-.034l-.003-.005-.002-.004-.004-.007-.005-.01a2.175 2.175 0 0 1 .045-1.742.164.164 0 0 1 .062-.074.102.102 0 0 1 .035-.014.084.084 0 0 1 .043.002ZM150.278 79.916c-.718.455-1.454.464-2.207.027-.328-.19-.444-.474-.348-.852.104-.404.35-.684.74-.84a2.998 2.998 0 0 1 1.117-.214.182.182 0 0 1 .152.084c.323.503.528 1.051.614 1.645a.155.155 0 0 1-.068.15Zm51.819 16.044c-.238.289-.524.306-.858.052a.26.26 0 0 1-.097-.274c.13-.528.365-.75.703-.665a.223.223 0 0 1 .082.04c.025.02.046.044.062.073.102.185.158.384.167.596a.266.266 0 0 1-.059.178Zm-36.064 4.091a4.027 4.027 0 0 1-1.282-.228.13.13 0 0 1-.08-.157c.106-.356.264-.558.472-.607.514-.122.863.141 1.047.79.007.023.008.049.003.073a.165.165 0 0 1-.03.067.16.16 0 0 1-.111.061h-.003l-.016.001Zm-6.881.39c-.675.108-.782-.069-.323-.53.48-.483.627-.343.441.418a.145.145 0 0 1-.118.112Zm4.676.352c.153-.204.382-.257.688-.157a.192.192 0 0 1 .109.093.19.19 0 0 1 .011.142c-.227.699-.499.729-.818.092a.186.186 0 0 1-.019-.089.153.153 0 0 1 .029-.081Zm-3.779 8.346c-.308-.574-.212-1.077.288-1.507a.244.244 0 0 0 .059-.074.19.19 0 0 0 .021-.085l.003-.769c0-.036.013-.071.036-.098a.138.138 0 0 1 .089-.051c.4-.061.722-.057.965.013a.13.13 0 0 1 .094.127l-.041 1.192a.424.424 0 0 1-.074.169l-.532.861a.593.593 0 0 1-.064.082.153.153 0 0 1-.063.039l-.637.169a.123.123 0 0 1-.082-.008.138.138 0 0 1-.062-.06Zm-126.517-1.517c-.242 1.749-1.154 2.286-2.737 1.61a.082.082 0 0 1-.043-.105c.462-1.122 1.318-1.702 2.57-1.738a.2.2 0 0 1 .087.017.198.198 0 0 1 .072.051.21.21 0 0 1 .051.165Zm126.881 2.701c-.257.193-.474.201-.653.023a.116.116 0 0 1-.012-.151c.24-.336.47-.363.692-.08a.141.141 0 0 1 .026.052.161.161 0 0 1 .004.058.157.157 0 0 1-.019.055.173.173 0 0 1-.038.043Zm-1.125 3.17-1.016-.308c-.378-.115-.474-.337-.288-.665.14-.245.472-.411.997-.499a.252.252 0 0 1 .25.105c.204.299.311.691.321 1.176a.19.19 0 0 1-.066.148l-.015.012a.2.2 0 0 1-.088.036.204.204 0 0 1-.095-.005Zm14.869.725-.229-.276a.157.157 0 0 0-.067-.046.247.247 0 0 0-.092-.017h-.198c-.022.001-.042-.011-.058-.031a.138.138 0 0 1-.026-.079l-.037-1.284c0-.011.001-.023.006-.034l.008-.016.01-.012a.072.072 0 0 1 .062-.019c.665.112 1.031.414 1.097.904a.067.067 0 0 1 0 .02v.004l-.003.011a.097.097 0 0 1-.018.031.096.096 0 0 1-.029.024l-.018.007-.004.001-.005.001-.01.002c-.223.025-.268.157-.134.397.132.237.099.39-.099.46l-.008.003-.006.001-.009.002-.013.001a.124.124 0 0 1-.047-.006.163.163 0 0 1-.073-.049Zm-129.768.923a.527.527 0 0 1 .232.09c.395.276.456.601.181.974-.19.258-.533.332-1.03.222a.157.157 0 0 1-.119-.119c-.123-.594.04-.973.489-1.139a.522.522 0 0 1 .247-.028Zm115.451 2.653c.191-.33.108-.536-.249-.621a.195.195 0 0 1-.15-.2c.043-.747.29-1.272.742-1.577.464-.314.952-.321 1.463-.021.377.221.607.558.69 1.011a1.54 1.54 0 0 1-.218 1.106c-.47.774-1.194.972-2.174.595a.206.206 0 0 1-.131-.209.203.203 0 0 1 .027-.084ZM8.45 124.891c.05.131.086.266.107.404.001.007.015.051.04.133.01.028.013.06.01.095a.121.121 0 0 1-.036.081 1.18 1.18 0 0 1-.64.374.087.087 0 0 1-.039 0 .094.094 0 0 1-.036-.014.105.105 0 0 1-.027-.028.092.092 0 0 1-.014-.036l-.163-1.046a.18.18 0 0 1 .008-.09.193.193 0 0 1 .052-.077c.324-.301.57-.233.738.204Zm215.549.581c.269.44.143.656-.376.648a.136.136 0 0 0-.08.025.1.1 0 0 0-.041.064.554.554 0 0 0 .058.348.17.17 0 0 1 .022.087.13.13 0 0 1-.024.077c-.213.313-.472.381-.775.204a.064.064 0 0 1-.013-.01.107.107 0 0 1-.018-.019.1.1 0 0 1-.011-.017l-.001-.003-.003-.007-.003-.007a.12.12 0 0 1 .005-.081c.193-.462.307-.943.344-1.443a.16.16 0 0 1 .029-.083.15.15 0 0 1 .066-.051c.355-.136.628-.047.821.268Zm-217.983-.079c.3.388.115.457-.556.206a.08.08 0 0 1-.028-.02.073.073 0 0 1-.003-.095c.22-.279.416-.309.587-.091Zm6.988.771c.088-.238.269-.241.542-.007a.2.2 0 0 1 .049.061.201.201 0 0 1-.032.223 1 1 0 0 1-.625.32.075.075 0 0 1-.034-.002.068.068 0 0 1-.028-.019.065.065 0 0 1-.017-.03.071.071 0 0 1 0-.034c.034-.175.083-.346.145-.512Zm323.913 1.023a.462.462 0 0 1 .408.026c.125.063.12.116-.013.157-.249.078-.4.064-.455-.043a.102.102 0 0 1-.01-.038c0-.014.003-.028.009-.041a.073.073 0 0 1 .015-.025l.009-.011a.15.15 0 0 1 .037-.025Zm-124.193.762c-.36.181-.681.221-.962.121-.288-.104-.284-.174.014-.212a.562.562 0 0 0 .365-.2c.232-.28.45-.276.653.011l.004.006.002.004a.15.15 0 0 1 .01.017l.003.008.002.004.002.006.002.005.004.015.002.01a.202.202 0 0 1 .004.043l-.001.005v.008l-.005.026a.186.186 0 0 1-.014.037l-.004.008-.002.005-.009.013-.007.009a.259.259 0 0 1-.034.034.275.275 0 0 1-.029.017Zm-1.529 2.137c-.618.199-1.129.026-1.535-.519a1.863 1.863 0 0 1-.328-.741 1.532 1.532 0 0 1 .202-1.172.156.156 0 0 1 .065-.057l.006-.002.01-.004.003-.001.006-.002.004-.001.012-.002.005-.001.015-.001h.012l.012.001c.505.065.779.362.821.89a.173.173 0 0 0 .032.089.1.1 0 0 0 .066.04l.38.041c.04.003.077.01.106.019.03.008.052.019.065.031.397.357.457.783.181 1.278a.248.248 0 0 1-.14.114Zm115.582-.14-1.038-.422a.078.078 0 0 1-.03-.021l-.004-.005-.002-.003-.003-.004a.036.036 0 0 1-.004-.009l-.002-.005-.003-.007a.164.164 0 0 1-.002-.022l.001-.015a.084.084 0 0 1 .016-.033l.453-.576a.107.107 0 0 1 .069-.039.114.114 0 0 1 .08.016c.408.254.61.604.606 1.048a.11.11 0 0 1-.045.087.108.108 0 0 1-.07.017l-.013-.003-.005-.002-.004-.002Zm-316.064-.045a.233.233 0 0 1 .026-.089c.095-.183.206-.194.33-.035.054.07.088.146.1.228.028.192-.08.232-.324.12a.228.228 0 0 1-.132-.224Zm148.89 1.459c-.247-.406-.355-.719-.327-.941.044-.34.18-.381.406-.125.289.328.304.684.045 1.068a.08.08 0 0 1-.027.025.086.086 0 0 1-.036.008.059.059 0 0 1-.023-.004l-.012-.006a.063.063 0 0 1-.026-.025Zm60.921.251.173-.607c.07-.245.245-.392.526-.441.623-.109.826.042.608.453-.215.407-.616.644-1.204.712a.117.117 0 0 1-.046-.006.107.107 0 0 1-.038-.026l-.009-.013c-.006-.008-.009-.018-.012-.028a.094.094 0 0 1 .002-.044Zm-65.588.984a3.543 3.543 0 0 1-.637-.167.854.854 0 0 1-.466-.419 2.474 2.474 0 0 1-.228-.645.191.191 0 0 1 .005-.089.176.176 0 0 1 .048-.074c.432-.404.87-.363 1.313.12.333.364.383.759.15 1.184a.179.179 0 0 1-.185.09Zm161.705 4.725a60.968 60.968 0 0 1-.882-.607.157.157 0 0 1-.047-.054.115.115 0 0 1-.011-.031.127.127 0 0 1-.006-.039v-1.136c0-.223.104-.376.311-.459.462-.184.896-.205 1.3-.062.387.136.697.395.93.778.316.52.344 1.1.084 1.74a.277.277 0 0 1-.121.138 2.41 2.41 0 0 1-1.394.331c-.099-.007-.118-.049-.057-.127.114-.146.151-.254.111-.324 0 0-.073-.051-.218-.148Zm-159.327-.525-.655-.337a.105.105 0 0 1-.055-.098.114.114 0 0 1 .011-.04c.248-.517.612-.836 1.09-.956a.274.274 0 0 1 .34.268c-.003.543-.19.928-.56 1.155a.177.177 0 0 1-.084.027.187.187 0 0 1-.087-.019Zm-1.309 3.358c-.144.176-.31.131-.498-.134-.458-.649-.561-1.452-.309-2.411a.128.128 0 0 1 .053-.075.128.128 0 0 1 .089-.021c.27.034.529.011.777-.07a.116.116 0 0 1 .14.062c.463.992.378 1.875-.252 2.649Zm-146.828-.875c.023.552-.152.778-.527.676a.737.737 0 0 1-.478-.41 1.492 1.492 0 0 1-.145-.846c.035-.308.085-.547.151-.715.105-.263.312-.428.622-.494a.142.142 0 0 1 .058 0c.02.003.037.011.054.022.016.011.03.025.04.041.011.016.019.034.023.054.112.604.18 1.161.202 1.672Zm151.578 1.131-1.09-1.007a.203.203 0 0 1-.064-.134.234.234 0 0 1 .042-.15c.385-.54.785-.966 1.201-1.277a.274.274 0 0 1 .175-.057c.428.017.723.189.884.516.115.236.127.535.037.898a3.069 3.069 0 0 1-.513 1.112c-.213.284-.437.317-.672.099Zm13.377-.608c.242.351.113.537-.388.558a.16.16 0 0 1-.078.039.102.102 0 0 1-.067-.012.171.171 0 0 1-.058-.056 1.182 1.182 0 0 1-.178-.506.18.18 0 0 1 .062-.161c.258-.221.493-.175.707.138Zm-5.614.202c-.091.288-.2.409-.327.364a.653.653 0 0 1-.295-.216c-.28-.364-.139-.516.422-.455a.23.23 0 0 1 .098.034.235.235 0 0 1 .102.273Zm146.675 2.143a.233.233 0 0 0-.114-.01c-.305.051-.491-.08-.557-.391a.825.825 0 0 1 .091-.562c.266-.522.518-.46.756.185l.06.198c.102.34.322.475.659.405.352-.074.574.068.666.426l.311 1.199.001.006.001.004v.007l-.002.013a.052.052 0 0 1-.014.025.023.023 0 0 1-.007.007l-.004.003-.007.003a.014.014 0 0 1-.006.002.045.045 0 0 1-.028 0 5.493 5.493 0 0 1-1.519-.618c-.182-.106-.229-.314-.142-.622a.236.236 0 0 0-.051-.216.226.226 0 0 0-.094-.064Zm-160.836-1.044c.327-.126.659-.16.999-.103.215.036.36.133.435.291a.714.714 0 0 1 .037.508.125.125 0 0 1-.016.035.108.108 0 0 1-.031.033.124.124 0 0 1-.079.027l-1.154.012a.212.212 0 0 1-.119-.037.19.19 0 0 1-.041-.039.743.743 0 0 1-.141-.597.17.17 0 0 1 .11-.13Zm4.459 1.608c-.141-.027-.337-.2-.587-.517a.091.091 0 0 1-.008-.013.088.088 0 0 1-.005-.015.062.062 0 0 1 .002-.03.069.069 0 0 1 .033-.04l.007-.004 1.302-.49a.264.264 0 0 1 .18-.011c.327.109.572.313.737.614a.115.115 0 0 1-.033.146c-.482.355-1.025.475-1.628.36Zm8.292.912a.15.15 0 0 1-.11-.029c-.59-.484-.698-.989-.324-1.515a.917.917 0 0 1 .552-.356c.149-.038.299-.066.45-.086a.616.616 0 0 1 .43.08c.299.196.419.489.361.881a.14.14 0 0 1-.038.08.11.11 0 0 1-.038.027.14.14 0 0 1-.035.01l-.246.027a.438.438 0 0 0-.106.023.162.162 0 0 0-.067.039l-.721.764a.174.174 0 0 1-.108.055Zm3.205.175a3.47 3.47 0 0 1-1.166-.286l-.037-.02a.225.225 0 0 1-.041-.034.223.223 0 0 1-.05-.076 1.673 1.673 0 0 1-.105-.873c.041-.283.077-.459.107-.529.087-.204.289-.276.608-.218a.19.19 0 0 1 .096.05.22.22 0 0 1 .061.098l.595 1.794.002.009a.02.02 0 0 1 .001.008.054.054 0 0 1 0 .018l-.001.004c0 .004-.002.008-.003.011a.05.05 0 0 1-.009.016.063.063 0 0 1-.026.022l-.012.004a.05.05 0 0 1-.012.002h-.008Zm-159.605-.257c-.158-.419-.226-.812-.203-1.18.013-.191.079-.317.197-.377.12-.061.28-.084.482-.069a.154.154 0 0 1 .098.049.15.15 0 0 1 .04.101c0 .329.014.631.042.904.026.254-.137.467-.49.638a.106.106 0 0 1-.049.012.12.12 0 0 1-.117-.078Zm149.977.443c.476.334.336.458-.42.374a.155.155 0 0 1-.08-.034.143.143 0 0 1-.048-.071c-.084-.287-.011-.421.221-.403a.692.692 0 0 1 .327.134Zm7.838.679c-.025.321-.22.362-.582.121-.259-.172-.327-.402-.204-.691a.296.296 0 0 1 .197-.171.303.303 0 0 1 .255.053c.245.188.356.417.334.688Zm-7.895 3.706c-.624.478-1.244.501-1.861.068-.283-.199-.453-.33-.509-.393-.157-.172-.209-.4-.157-.684.071-.389.26-.704.567-.945.499-.39.983-.799 1.453-1.225a.251.251 0 0 1 .081-.049.207.207 0 0 1 .088-.013c.209.013.401.074.577.184a.135.135 0 0 1 .053.065.145.145 0 0 1 .006.085 2.13 2.13 0 0 1-.583 1.072.28.28 0 0 0-.043.351c.271.43.406.872.406 1.327 0 .03-.007.06-.02.087a.218.218 0 0 1-.058.07Zm7.474-1.384-.258.033a.195.195 0 0 1-.089-.009.25.25 0 0 1-.086-.048c-.336-.268-.274-.479.186-.634.303-.102.514-.005.632.292.146.371.079.498-.202.381a.35.35 0 0 0-.183-.015Zm-11.709 1.919-.579-.13c-.145-.032-.159-.097-.042-.197.255-.216.51-.205.767.035.306.284.257.381-.146.292Zm138.855 2.981c-.664.092-1.215-.085-1.651-.529a.168.168 0 0 1-.018-.021l-.013-.021a.178.178 0 0 1-.02-.07l.001-.031a.156.156 0 0 1 .014-.048.172.172 0 0 1 .022-.037l.616-.752a.293.293 0 0 1 .079-.068.178.178 0 0 1 .082-.024h.756c.027 0 .055.009.082.025.028.016.055.04.077.069.32.409.406.833.259 1.269a.358.358 0 0 1-.286.238Zm10.718.935a.682.682 0 0 1-.313.179.174.174 0 0 1-.132.087c-.041.007-.085-.009-.13-.046a3.156 3.156 0 0 1-.677-.76.108.108 0 0 1-.008-.019.116.116 0 0 1-.006-.052.1.1 0 0 1 .036-.068l.418-.311a.088.088 0 0 1 .072-.013.138.138 0 0 1 .072.046l.666.809c.008.01.014.02.019.031a.088.088 0 0 1 .007.023.099.099 0 0 1 .003.024.093.093 0 0 1-.027.07Z" clip-rule="evenodd"/><path fill="currentColor" d="M87.146 7.207c.022.016.05.024.077.022.619-.058.807-.271.563-.642a.263.263 0 0 0-.148-.107c-.475-.136-.653.084-.534.661.005.027.02.05.042.066ZM43.288 58.294c-.331-.267-.615-.663-.85-1.186a.553.553 0 0 1-.051-.22.452.452 0 0 1 .044-.206l.632-1.305a.317.317 0 0 1 .132-.139.35.35 0 0 1 .194-.042c.4.026.703.191.91.496.093.137.155.402.186.795.031.394.14.769.328 1.124a.14.14 0 0 1-.029.171 2.07 2.07 0 0 1-1.323.566.249.249 0 0 1-.173-.054ZM45.592 63.384a.57.57 0 0 1-.334-.379c-.14-.516-.01-.99.39-1.421.217-.235.438-.239.665-.012.232.233.377.548.437.945.144.962-.242 1.25-1.158.867ZM1.267 64.844c.016-.097.05-.139.101-.126a.115.115 0 0 1 .062.047c.02.026.035.06.045.097.16.564.303 1.132.426 1.703.068.32.076.636.023.947-.09.53-.135.837-.134.92.008.4.065.773.171 1.12a.204.204 0 0 1-.095.24c-.499.282-.823.236-.972-.139a3.48 3.48 0 0 1-.153-2.158c.098-.402.149-.61.151-.623.135-.674.26-1.35.375-2.028ZM60.695 97.26c-.258-.372-.4-.84-.426-1.406a.354.354 0 0 1 .115-.278c.281-.257.542-.38.783-.365.029.002.058.01.086.024a.269.269 0 0 1 .075.06c.342.383.464.837.365 1.362-.089.483-.37.712-.845.689a.195.195 0 0 1-.153-.086ZM235.256 113.001c.048.173-.091.363-.311.425s-.438-.028-.486-.201c-.049-.172.09-.362.31-.424s.438.028.487.2ZM152.148 117.14c.25.178.415.383.494.615.189.558.362 1.122.52 1.691a.147.147 0 0 1-.002.088.137.137 0 0 1-.05.068c-.224.162-.427.172-.608.029-.105-.083-.199-.231-.282-.443a3.422 3.422 0 0 1-.148-2.019.052.052 0 0 1 .03-.035.04.04 0 0 1 .024-.002.053.053 0 0 1 .022.008ZM263.153 137.425a.18.18 0 0 1-.093-.054.175.175 0 0 1-.047-.096 8.781 8.781 0 0 1-.113-1.552c.008-.455.117-.954.326-1.497a83.835 83.835 0 0 1 2.47-5.752 223.161 223.161 0 0 0 1.971-4.27c.061-.134.114-.132.16.008a826.032 826.032 0 0 0 4.206 12.732c.116.341.144.77.083 1.286-.05.43-.044.773.018 1.028.094.393.232.79.413 1.192a.105.105 0 0 1 .01.028l.003.016a.149.149 0 0 1-.014.095.151.151 0 0 1-.043.057.164.164 0 0 1-.062.034c-1.167.329-2.35.278-3.55-.152a.37.37 0 0 0-.19-.015.417.417 0 0 0-.181.081l-.841.655a.24.24 0 0 1-.173.053l-2.481-.202a.143.143 0 0 1-.108-.065.144.144 0 0 1-.018-.04c-.098-.348-.04-.697.177-1.048.166-.271.239-.57.221-.897-.017-.288-.148-.54-.394-.756-.482-.423-1.065-.712-1.75-.869ZM139.925 140.324a.69.69 0 0 0-.506.017.185.185 0 0 0-.065.051.275.275 0 0 0-.045.085l-.309.957a.105.105 0 0 1-.025.038.098.098 0 0 1-.04.022l-.01.002-.008.001H138.904l-.015-.001a.118.118 0 0 1-.043-.019.912.912 0 0 1-.365-.568 9.604 9.604 0 0 1-.01-.642 186.15 186.15 0 0 0-.172-7.836c-.017-.389-.11-.693-.278-.914-.24-.315-.527-.499-.861-.552a8.296 8.296 0 0 0-1.43-.095.167.167 0 0 1-.116-.044.179.179 0 0 1-.057-.112 1.267 1.267 0 0 1 .123-.705c.004-.008.072-.098.204-.271.112-.144.149-.322.109-.534a.12.12 0 0 1-.002-.046.143.143 0 0 1 .091-.112c.434-.157.727-.363.88-.618.133-.222.199-.204.198.054-.002.63.108 1.178.33 1.645a.892.892 0 0 0 .673.515c.442.085.856.139 1.239.164.304.019.512.078.622.177.151.133.269.334.353.602a538.418 538.418 0 0 1 1.871 6.009.294.294 0 0 1-.08.301c-.463.441-.878.86-1.245 1.258-.214.234-.311.454-.293.661.026.293.202.512.53.656.412.181.811.169 1.197-.037a.19.19 0 0 0 .095-.148l.051-.531a.46.46 0 0 1 .073-.233c.063-.082.136-.099.222-.051a.345.345 0 0 1 .124.152c.953 2.023 1.801 4.226 2.543 6.607.078.248.136.465.175.651.023.107.037.33.041.669.009.689.263 1.284.761 1.785.509.514.836 1.128.979 1.844.099.494-.102.77-.602.828a89.76 89.76 0 0 1-7.413.531c-.381.012-.53-.211-.449-.669.091-.515.209-1.023.356-1.524.07-.242-.007-.458-.23-.65a.559.559 0 0 1-.198-.533c.051-.342.075-.709.074-1.102l-.023-.356c-.029-.42.111-.762.419-1.027a.628.628 0 0 0 .226-.439 37.22 37.22 0 0 1 .347-2.925c.033-.203.107-.447.224-.733.137-.338.216-.579.237-.723a2.034 2.034 0 0 0-.321-1.416.28.28 0 0 0-.143-.116ZM349.582 130.355a.143.143 0 0 1-.038.047.126.126 0 0 1-.117.017.137.137 0 0 1-.032-.016l-.019-.017c-.292-.319-.421-.665-.387-1.039a.227.227 0 0 1 .027-.086.254.254 0 0 1 .062-.069c.491-.354.717-.185.677.507-.012.208-.07.426-.173.656ZM27.809 130.222c-.456-.556-.364-.709.276-.458a.254.254 0 0 1 .14.118c.149.271.063.41-.259.416a.204.204 0 0 1-.157-.076ZM196.279 141.78a.352.352 0 0 1-.094-.13l-.009-.027a.195.195 0 0 1-.006-.047l-.192-10.704c-.006-.24.053-.256.174-.049a431.523 431.523 0 0 1 8.14 14.558.07.07 0 0 1 .009.034.084.084 0 0 1-.007.035.092.092 0 0 1-.023.029.092.092 0 0 1-.033.019l-.781.264a.167.167 0 0 0-.069.048.232.232 0 0 0-.046.085c-.16.516-.281.825-.361.929-.19.25-.554.611-1.09 1.081-.41.359-.841.626-1.292.801-.52.203-1.066.371-1.636.506a.207.207 0 0 1-.086 0 .3.3 0 0 1-.09-.037l-1.698-.98a.496.496 0 0 1-.196-.185 6.675 6.675 0 0 1-.434-.96 8.234 8.234 0 0 0-.145-.341.775.775 0 0 1 .093-.82l.169-.232c.474-.77.759-1.642.857-2.617a.495.495 0 0 0-.021-.197.337.337 0 0 0-.094-.149l-1.039-.914ZM187.382 133.201a.578.578 0 0 0 .347.559.146.146 0 0 0 .074.013.142.142 0 0 0 .072-.025.155.155 0 0 0 .066-.134l-.074-1.293a.469.469 0 0 0-.052-.197.425.425 0 0 0-.126-.149c-.412-.303-.56-.286-.443.048.09.259.136.652.136 1.178ZM322.388 140.374c-.351.067-.65.228-.896.485a.259.259 0 0 0-.074.169c-.015.364.18.51.585.439.123-.022.153.022.091.13a3.965 3.965 0 0 1-1.093 1.255c-.112.083-.165.054-.16-.086a12.025 12.025 0 0 0-.155-2.532c-.099-.586-.043-1.228.167-1.929a.21.21 0 0 1 .073-.105.21.21 0 0 1 .123-.04h2.209a.18.18 0 0 1 .141.066.15.15 0 0 1 .026.052l.361 1.293a.161.161 0 0 1 0 .087.208.208 0 0 1-.044.081c-.22.238-.446.471-.678.7-.101.098-.196.144-.284.138a.35.35 0 0 1-.245-.138.181.181 0 0 0-.069-.055.142.142 0 0 0-.078-.01ZM187.301 139.728a.137.137 0 0 0 .056.063c.37.211.539.137.507-.222-.088-1.003-.277-.978-.569.074a.15.15 0 0 0-.004.042.167.167 0 0 0 .01.043ZM4.191 143.114a1.113 1.113 0 0 1-.536-.62 9.36 9.36 0 0 1-.15-.768c-.1-.577-.084-1.085.045-1.525.104-.348.363-.583.78-.704a.195.195 0 0 1 .09-.003c.029.007.057.021.08.04.67.576.94 1.293.81 2.153a.204.204 0 0 1-.185.173.198.198 0 0 1-.09-.012c-.355-.132-.534-.055-.537.232 0 .053-.006.193-.017.422-.012.21.087.357.297.443a.717.717 0 0 1 .221.117c.094.099-.04.151-.402.155a.779.779 0 0 1-.406-.103ZM274.181 140.409c-.193.379-.51.53-.95.453-.239-.041-.261-.134-.064-.278.299-.216.617-.311.952-.285a.06.06 0 0 1 .035.011c.011.007.02.016.026.027l.007.016a.07.07 0 0 1 .003.02.123.123 0 0 1-.002.019l-.002.005-.001.005-.004.007ZM108.095 141.963c-.424.229-.373.342.156.338a.794.794 0 0 0 .69-.365.1.1 0 0 0 .014-.036.086.086 0 0 0 0-.039l-.005-.017c-.003-.006-.006-.013-.01-.018a.09.09 0 0 0-.029-.026c-.207-.125-.406-.119-.596.017a2.36 2.36 0 0 1-.22.146ZM232.322 141.901c.019-.024.03-.02.031.011.117 1.954.198 3.912.245 5.875.023.99-.035 2.046-.173 3.169a.067.067 0 0 1-.012.029.075.075 0 0 1-.024.019c-.01.004-.02.005-.031.004a.057.057 0 0 1-.028-.011 1.633 1.633 0 0 1-.445-.447c-.086-.14-.104-.337-.055-.59.252-1.265.377-2.152.377-2.661 0-1.686-.006-3.371-.019-5.056a.539.539 0 0 1 .134-.342ZM67.41 144.423a24.96 24.96 0 0 1-4.554-1.426.195.195 0 0 1-.117-.13 1.432 1.432 0 0 1-.017-.642.125.125 0 0 1 .117-.103l1.07-.019a.13.13 0 0 1 .079.025.167.167 0 0 1 .056.07c.108.241.212.483.313.726.075.18.186.291.33.334.074.022.131.047.172.076.357.253.675.226.953-.08a.247.247 0 0 1 .075-.057.18.18 0 0 1 .083-.021l1.79-.007a.218.218 0 0 0 .132-.048.238.238 0 0 0 .079-.122l.153-.554a.182.182 0 0 1 .043-.077.225.225 0 0 1 .078-.055c.646-.29 1.244-.362 1.795-.216.378.101.592.331.64.69.037.265-.023.538-.18.821-.27.495-.7.802-1.286.92a3.658 3.658 0 0 0-1.181.435.132.132 0 0 1-.083.019.1.1 0 0 1-.069-.036l-.33-.42a.264.264 0 0 0-.142-.103ZM230.537 148.601a.189.189 0 0 0 .147-.045.187.187 0 0 0 .068-.137c.009-.161.039-.264.09-.308.059-.05.091-.026.095.074a183.472 183.472 0 0 1 .057 1.698l.004.049.007.067c.022.241-.113.33-.404.265a.831.831 0 0 0-.437.015c-.165.051-.265-.015-.3-.198a6.523 6.523 0 0 0-.38-1.281 52.505 52.505 0 0 0-1.908-4.128.754.754 0 0 1-.025-.665l.468-1.153c.079-.192.151-.19.217.005a68.276 68.276 0 0 0 1.337 3.625c.123.308.185.651.186 1.026.002.349.037.581.105.697.134.225.358.357.673.394ZM63.67 146.264a3.133 3.133 0 0 1-.39.385c-.182.15-.292.11-.331-.122-.104-.636.194-.926.894-.872a.126.126 0 0 1 .116.121.13.13 0 0 1-.012.06 1.866 1.866 0 0 1-.277.428ZM92.224 147.215a.803.803 0 0 1-.07-.84.107.107 0 0 1 .057-.052.108.108 0 0 1 .077.001c.554.232.62.54.198.924a.169.169 0 0 1-.139.043.174.174 0 0 1-.124-.076ZM134.703 153.042c-.122-.037-.134-.097-.037-.178a.933.933 0 0 0 .332-.829l-.017-.218-.006-.086-.002-.034a85.657 85.657 0 0 1 .046-4.301.09.09 0 0 1 .009-.032.076.076 0 0 1 .023-.024.063.063 0 0 1 .03-.01.07.07 0 0 1 .032.005c.545.236.961.589 1.249 1.058.211.341.326.832.346 1.474.027.937.015 1.891-.037 2.86a.219.219 0 0 1-.041.114.218.218 0 0 1-.097.073c-.681.246-1.291.289-1.83.128ZM219.168 148.405a.566.566 0 0 1 .458-.016.14.14 0 0 1 .067.053l.008.014.01.023a.147.147 0 0 1 .007.046l-.022 1.41v.013l-.002.013a.13.13 0 0 1-.027.052.113.113 0 0 1-.074.039l-1.703.198c-.193.022-.201-.01-.024-.095.68-.329 1.081-.865 1.203-1.606a.223.223 0 0 1 .033-.088.168.168 0 0 1 .066-.056ZM25.664 150.548c.144-.463.293-.414.447.147a.301.301 0 0 0 .266.222c.328.027.495.326.502.895a.203.203 0 0 1-.045.126.269.269 0 0 1-.119.086l-.895.322a.13.13 0 0 0-.064.052.186.186 0 0 0-.03.088l-.058.658a.24.24 0 0 1-.081.163c-.538.472-.797.341-.777-.391l.011-.445c-.002-.489.002-.977.012-1.464 0-.033.01-.064.026-.088a.113.113 0 0 1 .063-.05l.62-.209a.21.21 0 0 0 .078-.045.156.156 0 0 0 .044-.067ZM23.473 152.593a.155.155 0 0 1-.04-.077.245.245 0 0 1 0-.102c.131-.658.118-1.264-.04-1.816a.21.21 0 0 1-.006-.093.149.149 0 0 1 .035-.074c.108-.121.247-.14.418-.058.184.088.269.359.255.814l-.057 1.834c-.002.089-.031.106-.087.051l-.478-.479ZM92.229 150.626c-.055-.265-.154-.292-.297-.082-.085.122-.158.417-.22.887a.216.216 0 0 0 .007.093.19.19 0 0 0 .045.078l.455.47c.067.07.103.056.107-.042a5.53 5.53 0 0 0-.097-1.404ZM125.719 152.747c-.04.126.028.179.204.159l.017-.001.035.002c.014.002.027.006.041.01a.235.235 0 0 1 .057.032.217.217 0 0 1 .044.047.216.216 0 0 1 .022.049.18.18 0 0 1 .004.089l-.164.751c-.036.169.019.215.166.136.261-.143.463-.333.606-.57.107-.18.161-.438.161-.772v-.955a.227.227 0 0 1 .076-.163 1.54 1.54 0 0 0 .493-.91.142.142 0 0 0-.066-.148c-.363-.219-.562-.065-.598.463a2.641 2.641 0 0 1-.214.867c-.137.316-.39.576-.76.78a.332.332 0 0 0-.08.061.201.201 0 0 0-.044.073ZM208.319 151.26c-.061-.173-.162-.166-.303.019-.185.244-.26.511-.223.803.004.031.009.148.017.35.013.266.22.313.622.142a.1.1 0 0 0 .053-.054.095.095 0 0 0 .001-.074 2.217 2.217 0 0 1-.147-.963.618.618 0 0 0-.02-.223ZM198.601 153.725c-.016.336.174.458.569.368 1.263-.293 2.351-.468 3.266-.523.378-.024.828.036 1.35.178.03.009.058.024.081.043l.014.013a.176.176 0 0 1 .024.03l.007.01.01.019c.308.7.009 1.114-.896 1.241a.298.298 0 0 0-.169.083c-.348.353-.309.611.117.776.108.042.111.089.007.142-.714.368-1.394.677-2.039.926a4.715 4.715 0 0 1-1.626.322c-.921.02-1.861-.048-2.819-.204a.145.145 0 0 1-.085-.045l-.006-.006a.083.083 0 0 1-.008-.012l-.005-.008a.116.116 0 0 1-.015-.057l.008-.84a.103.103 0 0 1 .033-.07.027.027 0 0 0 .008-.007l.003-.002a.182.182 0 0 1 .031-.016.15.15 0 0 1 .038-.008l2.96-.22a.219.219 0 0 0 .2-.173c.125-.594.002-.885-.367-.873l-.322.01a73.551 73.551 0 0 0-2.39-.142c-.145-.007-.178-.071-.099-.193.424-.658.367-1.192-.171-1.602a.202.202 0 0 1-.058-.069.204.204 0 0 1-.02-.086c.025-.828.307-.929.848-.304.02.024.045.042.072.054a.17.17 0 0 0 .085.014 1.427 1.427 0 0 0 1.008-.501.213.213 0 0 1 .073-.055.174.174 0 0 1 .086-.014 2.85 2.85 0 0 1 1.759.8.72.72 0 0 1 .219.354 1.1 1.1 0 0 1 0 .46l-.01.02a.127.127 0 0 1-.108.062l-1.556.008a.11.11 0 0 0-.074.028.086.086 0 0 0-.013.014.088.088 0 0 0-.02.055ZM185.616 152.918c.123-.082.163-.177.122-.286-.032-.089-.117-.159-.255-.21-.695-.26-1.33-.157-1.905.311-.196.157-.168.239.083.245.516.011 1.075.014 1.679.01a.507.507 0 0 0 .276-.07ZM208.324 157.752a.119.119 0 0 1-.071-.038.145.145 0 0 1-.036-.077l-.196-1.592c-.029-.223.03-.25.176-.082l1.273 1.466a.15.15 0 0 1 .025.051.11.11 0 0 1 0 .057.105.105 0 0 1-.026.05.22.22 0 0 1-.023.02 2.218 2.218 0 0 1-1.122.145ZM205.923 156.412c-.091-.198-.01-.339.244-.424a.16.16 0 0 1 .087-.003.18.18 0 0 1 .078.042c.394.358.305.517-.266.479a.19.19 0 0 1-.087-.028.149.149 0 0 1-.056-.066ZM210.676 157.12c-.223.08-.194.22.087.418.27.188.664.271 1.182.249.152-.008.167-.056.042-.144a3.562 3.562 0 0 0-1.014-.519.452.452 0 0 0-.297-.004Z"/></svg>