<svg width="215" height="215" fill="none" xmlns="http://www.w3.org/2000/svg"><rect width="215" height="215" rx="64" fill="#FFB714"/><path d="M109.587 48.722c-.742.964-3.597 4.634-8.565 11.011a508.058 508.058 0 0 1-15.683 19.131l-1.223 10.122c-.594 5.71-1.187 9.75-1.78 12.124-.52 2.298-1.372 3.448-2.558 3.448-1.706 0-3.745-.594-6.118-1.78-2.298-1.261-4.337-2.744-6.117-4.449-1.706-1.705-2.558-3.114-2.558-4.227-.075-1.334.148-3.225.667-5.672a1861.11 1861.11 0 0 1 3.003-12.458l.779-3.003c-.52-1.186-2.484-5.264-5.895-12.235-2.818-5.56-4.931-9.973-6.34-13.236-1.41-3.336-2.113-5.895-2.113-7.674 0-1.26.815-2.744 2.447-4.45 1.705-1.705 3.707-3.15 6.006-4.337 2.373-1.26 4.486-1.89 6.34-1.89 1.408 0 2.52 1.26 3.336 3.78.816 2.448 1.854 6.748 3.115 12.903 1.186 6.451 2.373 11.864 3.559 16.24 7.044-12.013 12.976-23.395 17.796-34.147 2.447-.668 4.635-1.001 6.563-1.001 3.855 0 6.822 1.149 8.898 3.448 2.15 2.298 3.299 5.413 3.448 9.343l-7.007 9.009ZM159.046 76.862c.074 1.187.333 4.19.778 9.01.519 4.745.779 8.712.779 11.9 0 4.153-.482 6.378-1.446 6.674-.297.075-.779.112-1.446.112-1.631 0-3.67-.371-6.117-1.113-2.373-.815-4.524-1.816-6.452-3.003-1.853-1.186-2.928-2.335-3.225-3.448-.297-1.112-.445-5.784-.445-14.014-8.008.964-13.273 1.557-15.794 1.78a760.13 760.13 0 0 1-6.896 19.242c-2.002.444-3.856.667-5.562.667-2.966 0-5.487-.705-7.563-2.113-2.002-1.483-3.337-3.708-4.004-6.674l2.224-5.005c8.157-18.167 15.201-33.405 21.133-45.714 6.007-12.31 9.9-18.464 11.679-18.464 1.409 0 3.448.52 6.118 1.557 2.743 1.038 5.19 2.299 7.341 3.782 2.224 1.483 3.485 2.818 3.781 4.004.519 2.076 1.224 6.414 2.114 13.014.89 6.6 1.594 12.976 2.113 19.13l.89 8.676ZM141.138 44.05c-3.262 7.712-6.488 15.98-9.676 24.804 3.411-.222 6.784-.556 10.121-1.001 0-10.233-.148-18.167-.445-23.803ZM61.082 108.587c8.972.741 17.277 2.966 24.914 6.673 7.638 3.708 13.681 8.379 18.13 14.015 4.449 5.561 6.674 11.419 6.674 17.574 0 5.413-2.373 11.382-7.119 17.907-4.745 6.526-10.529 12.05-17.35 16.573-6.749 4.523-12.903 6.785-18.464 6.785-1.854 0-4.227-.927-7.119-2.781-2.818-1.854-5.302-3.967-7.452-6.34-2.15-2.447-3.226-4.375-3.226-5.784 0-1.26.742-4.782 2.225-10.566 1.483-6.006 2.706-11.419 3.67-16.239.371-1.854 1.187-5.117 2.447-9.788.149-.667.52-2.002 1.113-4.004.593-2.076 1.038-3.967 1.334-5.673l-4.56-.222c-1.186-2.373-1.78-4.746-1.78-7.119 0-2.224.556-4.263 1.669-6.117 1.112-1.928 2.743-3.559 4.894-4.894Zm6.785 64.956c7.415-3.856 13.57-8.564 18.463-14.126 4.968-5.561 7.452-10.789 7.452-15.683 0-2.891-1.742-5.672-5.227-8.342-3.411-2.669-7.341-4.449-11.79-5.338-.89 4.523-2.225 11.011-4.005 19.464-2.224 10.53-3.855 18.538-4.893 24.025ZM159.456 111.701c1.261.519 2.522 1.706 3.782 3.559a27.867 27.867 0 0 1 3.114 6.118c.816 2.15 1.224 3.893 1.224 5.228 0 .519-.037.889-.111 1.112-1.113 3.04-5.895 9.343-14.349 18.908-8.379 9.566-16.609 18.204-24.692 25.916 8.972-1.705 18.76-3.337 29.364-4.894 1.705.742 3.04 2.076 4.004 4.004.964 1.854 1.446 3.893 1.446 6.118 0 3.559-1.075 6.451-3.225 8.675-13.348.668-23.543 1.001-30.588 1.001-8.231 0-12.828-.37-13.792-1.112-1.631-1.409-3.225-3.744-4.783-7.007-1.557-3.337-2.335-6.043-2.335-8.12 0-.445.074-.889.222-1.334.371-1.187 2.447-3.745 6.229-7.675 3.781-4.004 9.343-9.677 16.684-17.018 9.343-9.343 15.423-15.571 18.241-18.686l-12.791 1.113-15.461 1.446c-1.557-.816-2.78-2.114-3.67-3.893a12.516 12.516 0 0 1-1.335-5.673c0-1.631.334-3.226 1.001-4.783a11.711 11.711 0 0 1 3.115-4.004c2.521-.074 7.081-.111 13.68-.111 15.127 0 23.469.371 25.026 1.112Z" fill="#593000"/></svg>