<svg xmlns="http://www.w3.org/2000/svg" width="215" height="215" fill="none"><path fill="#593000" d="M151 0H64C28.654 0 0 28.654 0 64v87c0 35.346 28.654 64 64 64h87c35.346 0 64-28.654 64-64V64c0-35.346-28.654-64-64-64Z"/><path fill="#FFAF04" fill-rule="evenodd" d="M188.99 83.846c-.909-1.337-1.818-2.192-2.727-2.567-.709-.338-3.376-.568-7.998-.693-2.689-.073-6.041-.109-10.055-.109-4.76 0-8.051.027-9.87.08a8.596 8.596 0 0 0-1.361 1.425 8.503 8.503 0 0 0-.885 1.464 8.79 8.79 0 0 0-.722 3.45c0 1.444.32 2.808.963 4.092.641 1.284 1.525 2.22 2.648 2.808l11.151-1.043 9.229-.803c-2.032 2.248-6.419 6.74-13.16 13.48-5.294 5.297-9.306 9.387-12.034 12.276-2.728 2.835-4.226 4.681-4.494 5.537a3.03 3.03 0 0 0-.16.964c0 .983.244 2.164.729 3.541.252.719.571 1.491.956 2.315 1.123 2.353 2.273 4.038 3.45 5.054.696.536 4.011.804 9.949.804 5.082 0 12.436-.241 22.066-.723 1.55-1.604 2.325-3.691 2.325-6.258 0-1.605-.347-3.076-1.043-4.414-.694-1.39-1.657-2.353-2.887-2.888-7.65 1.124-14.71 2.301-21.182 3.531 5.829-5.563 11.766-11.794 17.811-18.695 6.099-6.9 9.549-11.448 10.352-13.64a1.45 1.45 0 0 0 .053-.264c.018-.144.027-.324.027-.54 0-.301-.03-.632-.086-.99l-.033-.185-.046-.238c-.08-.38-.189-.788-.326-1.224a19.792 19.792 0 0 0-.392-1.133 20.092 20.092 0 0 0-2.248-4.414ZM114.529 79c6.472.535 12.463 2.139 17.973 4.814 5.51 2.674 9.868 6.045 13.078 10.11 3.21 4.012 4.814 8.238 4.814 12.677 0 3.906-1.711 8.211-5.135 12.918-3.423 4.707-7.595 8.692-12.516 11.955-4.868 3.264-9.309 4.894-13.32 4.894-1.336 0-3.048-.668-5.135-2.005a27.912 27.912 0 0 1-5.376-4.574c-.839-.953-1.45-1.797-1.836-2.532-.327-.626-.49-1.173-.49-1.64 0-.549.194-1.692.584-3.43.118-.526.253-1.104.406-1.736.18-.744.385-1.562.615-2.456 1.069-4.333 1.951-8.238 2.647-11.714.148-.735.391-1.778.732-3.127.28-1.105.623-2.417 1.034-3.934.107-.482.373-1.445.802-2.89.221-.776.415-1.516.578-2.221a32.47 32.47 0 0 0 .384-1.87l-3.289-.16c-.157-.315-.3-.63-.428-.945a12.14 12.14 0 0 1-.452-1.312c-.13-.462-.228-.923-.295-1.384a10.298 10.298 0 0 1-.076-2.282 8.352 8.352 0 0 1 1.171-3.627c.802-1.39 1.978-2.567 3.53-3.529Zm-15.168 43.494c-.322-3.476-.509-5.643-.563-6.498l-.64-6.258a279.818 279.818 0 0 0-1.525-13.801c-.643-4.762-1.15-7.89-1.525-9.388-.214-.855-1.123-1.82-2.728-2.889-1.551-1.07-3.317-1.978-5.295-2.728-1.927-.748-3.398-1.123-4.414-1.123-1.284 0-4.092 4.44-8.425 13.32-4.278 8.878-9.361 19.871-15.244 32.977l-1.605 3.61c.482 2.139 1.444 3.744 2.889 4.814 1.498 1.017 3.315 1.524 5.456 1.524.584 0 1.194-.035 1.828-.108.7-.08 1.427-.204 2.184-.372a552.144 552.144 0 0 0 4.974-13.881l.857-.081a328.95 328.95 0 0 0 4.798-.525c1.626-.187 3.539-.413 5.739-.678 0 5.937.107 9.307.32 10.109.214.803.99 1.632 2.328 2.487 1.39.857 2.94 1.578 4.653 2.167.843.255 1.618.45 2.326.584.283.053.556.096.818.13.455.058.88.088 1.27.088.481 0 .828-.027 1.042-.08.437-.134.738-.818.9-2.053.095-.729.143-1.65.143-2.761 0-1.2-.051-2.555-.154-4.064-.093-1.378-.229-2.885-.407-4.522ZM62.316 95.69c-.297.386-1.063 1.374-2.3 2.961l-3.879 4.982a364.42 364.42 0 0 1-11.312 13.801l-.884 7.302c-.427 4.119-.855 7.034-1.284 8.745-.373 1.659-.989 2.487-1.844 2.487-1.23 0-2.702-.427-4.414-1.283a20.76 20.76 0 0 1-4.413-3.209c-1.23-1.23-1.845-2.248-1.845-3.049-.053-.963.108-2.327.48-4.093.43-1.819 1.152-4.813 2.168-8.985l.561-2.168c-.373-.855-1.79-3.797-4.253-8.825-2.032-4.012-3.556-7.195-4.572-9.548C23.509 92.4 23 90.555 23 89.27c0-.909.59-1.978 1.766-3.21 1.23-1.23 2.674-2.273 4.331-3.128 1.712-.91 3.237-1.364 4.574-1.364 1.016 0 1.82.909 2.407 2.728.59 1.764 1.337 4.867 2.248 9.307.855 4.653 1.71 8.559 2.567 11.714 5.081-8.664 9.361-16.875 12.837-24.633 1.766-.48 3.344-.721 4.735-.721 2.782 0 4.92.828 6.418 2.487 1.552 1.659 2.38 3.905 2.488 6.74l-5.055 6.499Zm23.565-3.364c-2.353 5.564-4.681 11.527-6.98 17.892 2.46-.159 4.893-.4 7.301-.721 0-7.383-.107-13.105-.32-17.17Zm46.862 23.342c-3.531 4.012-7.97 7.408-13.32 10.19.278-1.465.614-3.181 1.008-5.146.671-3.34 1.513-7.403 2.523-12.185a1176.867 1176.867 0 0 0 2.889-14.042c3.208.642 6.043 1.926 8.504 3.853 2.515 1.924 3.772 3.931 3.772 6.016 0 3.532-1.792 7.303-5.376 11.314Z" clip-rule="evenodd"/></svg>
