<svg width="216" height="216" viewBox="0 0 216 216" fill="none" xmlns="http://www.w3.org/2000/svg">
<rect width="216" height="216" rx="50" fill="#FFAF04"/>
<path fill-rule="evenodd" clip-rule="evenodd" d="M197.135 82.4242C196.15 80.975 195.165 80.0481 194.18 79.6419C193.411 79.276 190.521 79.0261 185.512 78.8907C182.598 78.8117 178.966 78.773 174.615 78.773C169.457 78.773 165.891 78.8021 163.92 78.8601C163.659 79.0777 163.412 79.3066 163.18 79.5468C162.915 79.8192 162.67 80.1045 162.445 80.4044C162.076 80.896 161.755 81.4248 161.486 81.9906C161.163 82.7401 160.942 83.501 160.82 84.2715C160.742 84.7535 160.704 85.2387 160.704 85.7288C160.704 87.294 161.05 88.7722 161.747 90.1634C162.442 91.5545 163.399 92.5684 164.616 93.2068L176.701 92.0768L186.702 91.2063C184.5 93.642 179.746 98.5102 172.441 105.814C166.704 111.554 162.356 115.987 159.4 119.118C156.443 122.19 154.82 124.191 154.53 125.118C154.414 125.466 154.356 125.814 154.356 126.162C154.356 127.228 154.62 128.508 155.146 130C155.42 130.779 155.765 131.616 156.182 132.509C157.399 135.059 158.645 136.885 159.92 137.986C160.675 138.567 164.268 138.857 170.703 138.857C176.21 138.857 184.179 138.596 194.615 138.073C196.295 136.336 197.135 134.074 197.135 131.292C197.135 129.552 196.759 127.958 196.005 126.509C195.252 125.002 194.209 123.959 192.876 123.378C184.585 124.597 176.935 125.872 169.921 127.205C176.239 121.176 182.672 114.424 189.223 106.946C195.832 99.4677 199.57 94.5399 200.441 92.1638C200.465 92.0897 200.484 91.9946 200.499 91.8785C200.518 91.7221 200.528 91.5271 200.528 91.2934C200.528 90.9661 200.496 90.6083 200.434 90.2198L200.399 90.0199L200.349 89.762C200.262 89.3493 200.144 88.9076 199.996 88.4353C199.875 88.0468 199.733 87.6374 199.57 87.207C198.934 85.4676 198.121 83.8734 197.135 82.4242ZM116.442 77.1723C123.456 77.7527 129.949 79.4904 135.919 82.3887C141.89 85.2871 146.613 88.9398 150.092 93.3454C153.571 97.6929 155.308 102.273 155.308 107.083C155.308 111.316 153.455 115.981 149.744 121.083C146.035 126.183 141.513 130.502 136.181 134.038C130.905 137.575 126.093 139.342 121.745 139.342C120.298 139.342 118.442 138.618 116.181 137.169C113.979 135.72 112.036 134.067 110.355 132.212C109.446 131.179 108.783 130.265 108.366 129.468C108.011 128.79 107.834 128.197 107.834 127.69C107.834 127.096 108.045 125.858 108.467 123.973C108.595 123.404 108.741 122.777 108.907 122.092C109.102 121.286 109.325 120.399 109.573 119.431C110.732 114.735 111.688 110.503 112.442 106.736C112.602 105.94 112.866 104.81 113.236 103.348C113.539 102.15 113.911 100.728 114.356 99.0841C114.472 98.5618 114.76 97.5189 115.225 95.9536C115.465 95.1122 115.674 94.3094 115.852 93.5453C116.018 92.836 116.156 92.1606 116.268 91.519L112.704 91.3449C112.533 91.0048 112.378 90.6631 112.239 90.3213C112.046 89.8474 111.883 89.3735 111.749 88.8996C111.609 88.3998 111.503 87.9001 111.43 87.4004C111.351 86.8604 111.312 86.3204 111.312 85.7804C111.312 85.4918 111.324 85.2081 111.348 84.9276C111.404 84.2651 111.528 83.6251 111.717 83.0077C111.931 82.3097 112.231 81.6392 112.617 80.9976C113.485 79.4904 114.76 78.2153 116.442 77.1723ZM100.004 124.307C99.6562 120.54 99.4531 118.191 99.395 117.264L98.7003 110.482C98.294 105.671 97.7427 100.685 97.048 95.5264C96.3516 90.3665 95.8019 86.9764 95.3957 85.3532C95.1636 84.4263 94.1786 83.3817 92.4393 82.2227C90.758 81.0637 88.8446 80.0787 86.7006 79.2663C84.6131 78.4555 83.0188 78.0493 81.9178 78.0493C80.5267 78.0493 77.4833 82.861 72.7875 92.483C68.1515 102.105 62.6433 114.018 56.2679 128.221L54.5285 132.133C55.0508 134.451 56.0938 136.19 57.659 137.349C59.2823 138.452 61.2522 139.002 63.5718 139.002C64.2053 139.002 64.8662 138.963 65.5529 138.884C66.3106 138.797 67.0988 138.663 67.9193 138.481C69.9472 133.031 71.7446 128.018 73.3098 123.438L74.2383 123.351C75.4731 123.228 77.206 123.038 79.4386 122.782C81.2005 122.579 83.2735 122.334 85.6577 122.047C85.6577 128.48 85.7737 132.133 86.0042 133.002C86.2364 133.872 87.0778 134.77 88.527 135.697C90.0342 136.626 91.7139 137.408 93.5693 138.046C94.4833 138.321 95.3231 138.533 96.0905 138.678C96.3967 138.736 96.6933 138.783 96.977 138.82C97.4703 138.882 97.9297 138.915 98.3521 138.915C98.8744 138.915 99.2499 138.886 99.4821 138.828C99.956 138.683 100.282 137.941 100.457 136.603C100.56 135.813 100.612 134.815 100.612 133.611C100.612 132.31 100.557 130.842 100.446 129.207C100.344 127.713 100.198 126.08 100.004 124.307ZM59.8594 95.2588C59.537 95.678 58.7068 96.7483 57.3673 98.4683L53.1632 103.867C49.2799 108.853 45.1935 113.839 40.904 118.823L39.9465 126.736C39.4839 131.2 39.0196 134.359 38.5554 136.213C38.1507 138.01 37.4834 138.908 36.5565 138.908C35.2234 138.908 33.6291 138.446 31.7737 137.517C29.9764 136.532 28.3821 135.373 26.991 134.04C25.6578 132.707 24.9921 131.604 24.9921 130.735C24.9341 129.693 25.1081 128.214 25.5128 126.301C25.977 124.329 26.7604 121.085 27.8614 116.563L28.4691 114.214C28.0645 113.287 26.5283 110.099 23.8605 104.65C21.6585 100.303 20.0062 96.8531 18.9052 94.3029C17.8042 91.6947 17.2529 89.6943 17.2529 88.3031C17.2529 87.3182 17.8913 86.1592 19.1664 84.8244C20.4995 83.4913 22.0647 82.3613 23.8605 81.4344C25.7159 80.4479 27.3682 79.9562 28.8173 79.9562C29.9183 79.9562 30.7888 80.9412 31.4255 82.9126C32.0639 84.8244 32.8747 88.187 33.8612 92.9988C34.7881 98.0411 35.715 102.274 36.6435 105.693C42.1501 96.3034 46.7878 87.4052 50.555 78.9987C52.4684 78.478 54.1787 78.2169 55.686 78.2169C58.7004 78.2169 61.0184 79.1148 62.6417 80.9121C64.323 82.7095 65.2209 85.1436 65.3369 88.2161L59.8594 95.2588ZM85.3965 91.6141C82.8464 97.643 80.3236 104.105 77.8315 111.003C80.4977 110.831 83.1349 110.57 85.7447 110.221C85.7447 102.221 85.6286 96.0197 85.3965 91.6141ZM136.181 116.909C132.354 121.257 127.544 124.937 121.745 127.952C122.047 126.364 122.411 124.505 122.838 122.376C123.565 118.755 124.478 114.353 125.572 109.17C126.963 102.563 128.006 97.4898 128.703 93.9531C132.18 94.6495 135.252 96.0407 137.918 98.1282C140.644 100.214 142.006 102.389 142.006 104.649C142.006 108.476 140.064 112.562 136.181 116.909Z" fill="#593000"/>
</svg>
